<svg id="svg" version="1.1" xmlns="http://www.w3.org/2000/svg" xmlns:xlink="http://www.w3.org/1999/xlink" width="400" height="400" viewBox="0, 0, 400,400"><g id="svgg"><path id="path0" d="M15.600 93.505 C 15.600 93.673,15.195 93.988,14.700 94.205 C 14.205 94.422,13.622 95.005,13.405 95.500 C 13.188 95.995,12.873 96.400,12.705 96.400 C 12.537 96.400,12.400 96.940,12.400 97.600 C 12.400 98.903,13.087 99.231,13.449 98.100 C 13.988 96.414,14.637 95.519,15.875 94.754 C 17.373 93.828,17.585 93.200,16.400 93.200 C 15.960 93.200,15.600 93.337,15.600 93.505 M270.098 93.700 C 270.189 93.975,270.652 94.257,271.128 94.327 C 272.245 94.492,274.308 96.555,274.473 97.672 C 274.680 99.079,275.600 99.047,275.600 97.633 C 275.600 96.955,275.463 96.400,275.295 96.400 C 275.127 96.400,274.812 95.995,274.595 95.500 C 274.378 95.005,273.795 94.422,273.300 94.205 C 272.805 93.988,272.400 93.673,272.400 93.505 C 272.400 93.337,271.845 93.200,271.167 93.200 C 270.359 93.200,269.990 93.373,270.098 93.700 M340.102 156.100 C 340.195 156.375,340.933 156.613,341.744 156.628 C 342.554 156.644,343.429 156.869,343.688 157.128 C 343.948 157.388,344.484 157.600,344.880 157.600 C 345.276 157.600,345.600 157.780,345.600 158.000 C 345.600 158.220,345.960 158.400,346.400 158.400 C 346.840 158.400,347.200 158.536,347.200 158.702 C 347.200 158.869,347.740 159.244,348.400 159.536 C 349.060 159.828,349.600 160.284,349.600 160.550 C 349.600 160.815,350.320 161.828,351.200 162.800 C 352.080 163.772,352.800 164.800,352.800 165.084 C 352.800 165.368,352.980 165.600,353.200 165.600 C 353.420 165.600,353.600 165.960,353.600 166.400 C 353.600 166.840,353.780 167.200,354.000 167.200 C 354.220 167.200,354.400 167.524,354.400 167.920 C 354.400 168.316,354.612 168.852,354.872 169.112 C 355.131 169.371,355.356 170.246,355.372 171.056 C 355.415 173.312,356.400 173.289,356.400 171.033 C 356.400 170.025,356.220 169.200,356.000 169.200 C 355.780 169.200,355.600 168.660,355.600 168.000 C 355.600 167.340,355.420 166.800,355.200 166.800 C 354.980 166.800,354.800 166.440,354.800 166.000 C 354.800 165.560,354.620 165.200,354.400 165.200 C 354.180 165.200,354.000 164.952,354.000 164.648 C 354.000 164.345,353.280 163.355,352.400 162.448 C 351.520 161.541,350.800 160.595,350.800 160.346 C 350.800 159.771,348.763 158.001,348.100 158.000 C 347.825 158.000,347.600 157.820,347.600 157.600 C 347.600 157.380,347.251 157.200,346.824 157.200 C 346.397 157.200,345.936 157.020,345.800 156.800 C 345.664 156.580,345.113 156.400,344.576 156.400 C 344.039 156.400,343.600 156.220,343.600 156.000 C 343.600 155.780,342.775 155.600,341.767 155.600 C 340.477 155.600,339.983 155.748,340.102 156.100 M337.900 169.076 C 336.845 169.351,337.060 170.000,338.205 170.000 C 340.378 170.000,342.799 172.266,342.800 174.300 C 342.800 175.916,343.448 176.004,343.793 174.434 C 344.066 173.191,343.582 172.073,342.155 170.645 C 340.502 168.993,339.555 168.643,337.900 169.076 M356.233 221.547 C 355.976 221.962,356.957 222.819,358.600 223.617 C 359.260 223.937,359.890 224.289,360.000 224.399 C 360.251 224.651,361.727 225.494,363.800 226.570 C 364.680 227.026,365.490 227.490,365.600 227.600 C 365.996 227.996,368.215 229.254,368.900 229.471 C 369.285 229.593,369.600 229.852,369.600 230.047 C 369.600 230.241,369.960 230.400,370.400 230.400 C 370.840 230.400,371.201 230.535,371.203 230.700 C 371.205 230.865,371.610 231.198,372.103 231.440 C 373.790 232.269,376.600 233.800,376.800 234.000 C 377.049 234.249,378.507 235.083,380.593 236.170 C 383.352 237.608,386.278 240.358,386.477 241.702 C 386.681 243.087,387.600 243.031,387.600 241.633 C 387.600 240.955,387.463 240.400,387.295 240.400 C 387.127 240.400,386.812 240.010,386.595 239.533 C 386.378 239.056,385.858 238.471,385.439 238.233 C 385.021 237.995,384.191 237.305,383.596 236.700 C 383.001 236.095,382.218 235.600,381.857 235.600 C 381.496 235.600,381.200 235.420,381.200 235.200 C 381.200 234.980,380.922 234.800,380.583 234.800 C 380.244 234.800,379.580 234.440,379.108 234.000 C 378.636 233.560,378.013 233.200,377.725 233.200 C 377.436 233.200,377.200 233.020,377.200 232.800 C 377.200 232.580,376.840 232.400,376.400 232.400 C 375.960 232.400,375.600 232.220,375.600 232.000 C 375.600 231.780,375.240 231.600,374.800 231.600 C 374.360 231.600,374.000 231.420,374.000 231.200 C 374.000 230.980,373.764 230.800,373.475 230.800 C 373.187 230.800,372.564 230.440,372.092 230.000 C 371.620 229.560,370.956 229.200,370.617 229.200 C 370.278 229.200,370.000 229.020,370.000 228.800 C 370.000 228.580,369.640 228.400,369.200 228.400 C 368.760 228.400,368.400 228.220,368.400 228.000 C 368.400 227.780,368.164 227.600,367.875 227.600 C 367.587 227.600,366.964 227.240,366.492 226.800 C 366.020 226.360,365.356 226.000,365.017 226.000 C 364.678 226.000,364.400 225.820,364.400 225.600 C 364.400 225.380,364.122 225.200,363.783 225.200 C 363.444 225.200,362.780 224.840,362.308 224.400 C 361.836 223.960,361.213 223.600,360.925 223.600 C 360.636 223.600,360.400 223.420,360.400 223.200 C 360.400 222.980,360.040 222.800,359.600 222.800 C 359.160 222.800,358.800 222.620,358.800 222.400 C 358.800 222.180,358.440 222.000,358.000 222.000 C 357.560 222.000,357.200 221.820,357.200 221.600 C 357.200 221.109,356.527 221.072,356.233 221.547 M306.000 227.167 C 306.000 227.845,306.137 228.400,306.305 228.400 C 306.473 228.400,306.788 228.805,307.005 229.300 C 307.222 229.795,307.805 230.378,308.300 230.595 C 308.795 230.812,309.200 231.127,309.200 231.295 C 309.200 231.463,309.755 231.600,310.433 231.600 C 311.847 231.600,311.879 230.680,310.472 230.473 C 309.996 230.403,309.078 229.816,308.431 229.169 C 307.784 228.522,307.197 227.604,307.127 227.128 C 306.920 225.721,306.000 225.753,306.000 227.167 M346.908 231.524 C 346.372 231.865,347.606 233.200,348.458 233.200 C 348.704 233.200,349.197 233.516,349.553 233.903 C 349.909 234.289,350.695 234.860,351.300 235.170 C 351.905 235.481,352.400 235.885,352.400 236.068 C 352.400 236.250,352.760 236.400,353.200 236.400 C 353.640 236.400,354.000 236.580,354.000 236.800 C 354.000 237.020,354.360 237.200,354.800 237.200 C 355.240 237.200,355.600 237.380,355.600 237.600 C 355.600 237.820,355.836 238.000,356.125 238.000 C 356.413 238.000,357.036 238.360,357.508 238.800 C 357.980 239.240,358.644 239.600,358.983 239.600 C 359.322 239.600,359.600 239.780,359.600 240.000 C 359.600 240.220,359.960 240.400,360.400 240.400 C 360.840 240.400,361.200 240.580,361.200 240.800 C 361.200 241.020,361.436 241.200,361.725 241.200 C 362.013 241.200,362.636 241.560,363.108 242.000 C 363.580 242.440,364.244 242.800,364.583 242.800 C 364.922 242.800,365.200 242.980,365.200 243.200 C 365.200 243.420,365.560 243.600,366.000 243.600 C 366.440 243.600,366.800 243.780,366.800 244.000 C 366.800 244.220,367.036 244.400,367.325 244.400 C 367.613 244.400,368.236 244.760,368.708 245.200 C 369.180 245.640,369.844 246.000,370.183 246.000 C 370.522 246.000,370.800 246.180,370.800 246.400 C 370.800 246.620,371.160 246.800,371.600 246.800 C 372.040 246.800,372.401 246.935,372.403 247.100 C 372.408 247.532,374.448 248.418,374.856 248.165 C 375.416 247.819,375.250 247.309,374.500 247.071 C 373.564 246.775,371.434 245.476,371.267 245.100 C 371.193 244.935,370.803 244.800,370.400 244.800 C 369.997 244.800,369.607 244.665,369.533 244.500 C 369.366 244.124,367.236 242.825,366.300 242.529 C 365.915 242.407,365.600 242.148,365.600 241.953 C 365.600 241.759,365.255 241.600,364.833 241.600 C 364.412 241.600,364.007 241.465,363.933 241.300 C 363.766 240.924,361.636 239.625,360.700 239.329 C 360.315 239.207,360.000 238.948,360.000 238.753 C 360.000 238.559,359.640 238.400,359.200 238.400 C 358.760 238.400,358.400 238.241,358.400 238.047 C 358.400 237.852,358.085 237.593,357.700 237.471 C 356.764 237.175,354.634 235.876,354.467 235.500 C 354.393 235.335,353.988 235.200,353.567 235.200 C 353.145 235.200,352.800 235.020,352.800 234.800 C 352.800 234.580,352.557 234.400,352.259 234.400 C 351.962 234.400,351.154 233.860,350.463 233.200 C 349.772 232.540,348.936 232.000,348.604 232.000 C 348.272 232.000,348.000 231.820,348.000 231.600 C 348.000 231.124,347.585 231.095,346.908 231.524 M352.400 249.499 C 352.400 249.670,351.995 249.988,351.500 250.205 C 351.005 250.422,350.422 251.005,350.205 251.500 C 349.988 251.995,349.673 252.400,349.505 252.400 C 349.337 252.400,349.200 259.600,349.200 268.400 C 349.200 278.800,349.340 284.400,349.600 284.400 C 349.820 284.400,350.000 284.580,350.000 284.800 C 350.000 285.507,348.596 285.226,348.000 284.400 C 347.683 283.960,347.114 283.600,346.735 283.600 C 346.357 283.600,345.936 283.420,345.800 283.200 C 345.365 282.497,342.400 282.708,342.400 283.442 C 342.400 283.950,342.735 284.052,344.000 283.931 C 345.111 283.826,345.600 283.935,345.600 284.289 C 345.600 284.570,345.960 284.800,346.400 284.800 C 346.840 284.800,347.200 284.968,347.200 285.173 C 347.200 285.378,347.537 285.653,347.949 285.784 C 348.941 286.099,354.502 291.573,355.437 293.154 C 355.841 293.840,356.292 294.400,356.438 294.400 C 356.584 294.400,356.927 294.940,357.200 295.600 C 357.473 296.260,357.855 296.800,358.049 296.800 C 358.242 296.800,358.400 297.160,358.400 297.600 C 358.400 298.040,358.580 298.400,358.800 298.400 C 359.020 298.400,359.200 298.749,359.200 299.176 C 359.200 299.603,359.380 300.064,359.600 300.200 C 359.820 300.336,360.000 300.802,360.000 301.236 C 360.000 301.670,360.243 302.118,360.541 302.233 C 360.875 302.361,361.008 302.822,360.890 303.443 C 360.690 304.485,362.176 306.379,362.726 305.785 C 362.877 305.623,362.775 305.410,362.500 305.312 C 362.216 305.210,362.000 304.458,362.000 303.567 C 362.000 302.705,361.820 302.000,361.600 302.000 C 361.380 302.000,361.200 301.651,361.200 301.224 C 361.200 300.797,361.020 300.336,360.800 300.200 C 360.580 300.064,360.400 299.513,360.400 298.976 C 360.400 298.439,360.241 298.000,360.047 298.000 C 359.852 298.000,359.593 297.685,359.471 297.300 C 359.141 296.258,357.896 294.291,357.100 293.554 C 356.715 293.198,356.400 292.718,356.400 292.488 C 356.400 292.258,355.306 290.958,353.968 289.600 C 352.631 288.242,351.665 287.011,351.823 286.865 C 351.981 286.719,352.190 286.825,352.288 287.100 C 352.386 287.375,353.007 287.600,353.667 287.600 C 355.053 287.600,355.058 286.677,353.672 286.473 C 353.196 286.403,352.265 285.804,351.603 285.142 L 350.400 283.938 350.400 268.400 L 350.400 252.862 351.624 251.637 L 352.849 250.413 363.924 250.306 C 379.020 250.161,378.859 249.436,363.700 249.294 C 357.485 249.235,352.400 249.328,352.400 249.499 M61.200 281.600 C 61.200 281.820,60.480 282.000,59.600 282.000 C 58.720 282.000,58.000 282.180,58.000 282.400 C 58.000 282.620,57.201 282.800,56.224 282.800 C 55.247 282.800,54.336 282.980,54.200 283.200 C 54.064 283.420,53.603 283.600,53.176 283.600 C 52.749 283.600,52.400 283.750,52.400 283.932 C 52.400 284.115,51.909 284.520,51.308 284.832 C 49.960 285.533,43.600 291.817,43.600 292.447 C 43.600 292.700,43.284 293.197,42.897 293.553 C 42.511 293.909,41.940 294.695,41.630 295.300 C 41.319 295.905,40.915 296.400,40.732 296.400 C 40.550 296.400,40.400 296.760,40.400 297.200 C 40.400 297.640,40.220 298.000,40.000 298.000 C 39.780 298.000,39.600 298.439,39.600 298.976 C 39.600 299.513,39.420 300.064,39.200 300.200 C 38.980 300.336,38.800 300.797,38.800 301.224 C 38.800 301.651,38.620 302.000,38.400 302.000 C 38.180 302.000,38.000 302.705,38.000 303.567 C 38.000 304.458,37.784 305.210,37.500 305.312 C 37.225 305.410,37.123 305.623,37.274 305.785 C 37.824 306.379,39.310 304.485,39.110 303.443 C 38.992 302.822,39.125 302.361,39.459 302.233 C 39.757 302.118,40.000 301.569,40.000 301.013 C 40.000 300.456,40.180 300.000,40.400 300.000 C 40.620 300.000,40.800 299.640,40.800 299.200 C 40.800 298.760,40.980 298.400,41.200 298.400 C 41.420 298.400,41.600 298.040,41.600 297.600 C 41.600 297.160,41.780 296.800,42.000 296.800 C 42.220 296.800,42.400 296.564,42.400 296.275 C 42.400 295.987,42.720 295.402,43.111 294.975 C 43.502 294.549,44.263 293.570,44.802 292.800 C 46.125 290.912,51.647 285.600,52.287 285.600 C 52.569 285.600,52.800 285.420,52.800 285.200 C 52.800 284.980,53.160 284.800,53.600 284.800 C 54.040 284.800,54.400 284.570,54.400 284.289 C 54.400 283.935,54.889 283.825,55.997 283.931 C 57.199 284.046,57.655 283.923,57.843 283.432 C 58.035 282.932,58.406 282.840,59.442 283.034 C 60.462 283.226,60.850 283.134,61.032 282.661 C 61.205 282.211,61.595 282.099,62.421 282.264 C 63.778 282.536,65.600 282.150,65.600 281.592 C 65.600 281.377,64.610 281.200,63.400 281.200 C 62.190 281.200,61.200 281.380,61.200 281.600 M71.807 281.588 C 71.464 282.143,73.365 282.533,74.956 282.235 C 75.995 282.040,76.365 282.132,76.558 282.634 C 76.751 283.136,77.120 283.229,78.158 283.034 C 79.194 282.840,79.565 282.932,79.757 283.432 C 79.945 283.923,80.401 284.046,81.603 283.931 C 82.482 283.847,83.200 283.943,83.200 284.143 C 83.200 284.558,85.243 286.399,85.703 286.400 C 86.111 286.400,88.198 288.191,90.400 290.430 C 93.422 293.502,94.505 294.933,95.903 297.700 C 96.209 298.305,96.612 298.800,96.800 298.800 C 96.988 298.800,97.391 298.305,97.697 297.700 C 99.375 294.378,102.609 290.549,106.227 287.600 C 107.383 286.658,107.919 286.312,110.100 285.100 C 110.595 284.825,111.126 284.424,111.280 284.208 C 111.434 283.993,112.200 283.872,112.981 283.939 C 114.011 284.028,114.471 283.880,114.655 283.401 C 114.834 282.935,115.190 282.811,115.863 282.980 C 116.518 283.145,116.892 283.026,117.055 282.600 C 117.234 282.135,117.628 282.044,118.644 282.235 C 120.235 282.533,122.136 282.143,121.793 281.588 C 121.475 281.074,117.200 281.085,117.200 281.600 C 117.200 281.820,116.761 282.000,116.224 282.000 C 115.687 282.000,115.136 282.180,115.000 282.400 C 114.864 282.620,114.054 282.800,113.200 282.800 C 112.346 282.800,111.536 282.980,111.400 283.200 C 111.264 283.420,110.837 283.600,110.452 283.600 C 110.066 283.600,109.364 283.960,108.892 284.400 C 108.420 284.840,107.822 285.200,107.564 285.200 C 107.305 285.200,106.803 285.524,106.447 285.919 C 106.091 286.314,105.170 287.075,104.400 287.610 C 102.632 288.838,101.638 289.832,100.410 291.600 C 99.875 292.370,99.114 293.291,98.719 293.647 C 98.324 294.003,98.000 294.588,98.000 294.947 C 98.000 295.306,97.820 295.600,97.600 295.600 C 97.380 295.600,97.200 295.960,97.200 296.400 C 97.200 296.840,97.020 297.200,96.800 297.200 C 96.580 297.200,96.400 296.840,96.400 296.400 C 96.400 295.960,96.220 295.600,96.000 295.600 C 95.780 295.600,95.600 295.306,95.600 294.947 C 95.600 294.588,95.276 294.003,94.881 293.647 C 94.486 293.291,93.724 292.370,93.188 291.600 C 91.998 289.891,89.756 287.600,89.273 287.600 C 89.078 287.600,88.354 287.060,87.663 286.400 C 86.972 285.740,86.202 285.200,85.951 285.200 C 85.699 285.200,85.201 284.885,84.843 284.500 C 83.794 283.373,82.509 282.800,81.029 282.800 C 80.269 282.800,79.536 282.620,79.400 282.400 C 79.264 282.180,78.533 282.000,77.776 282.000 C 77.019 282.000,76.400 281.820,76.400 281.600 C 76.400 281.085,72.125 281.074,71.807 281.588 M128.000 281.592 C 128.000 282.150,129.822 282.536,131.179 282.264 C 132.005 282.099,132.395 282.211,132.568 282.661 C 132.750 283.134,133.138 283.226,134.158 283.034 C 135.200 282.839,135.565 282.932,135.761 283.442 C 135.959 283.958,136.364 284.057,137.607 283.890 C 138.810 283.728,139.200 283.814,139.200 284.238 C 139.200 284.547,139.560 284.800,140.000 284.800 C 140.440 284.800,140.800 284.980,140.800 285.200 C 140.800 285.420,141.036 285.600,141.325 285.600 C 141.613 285.600,142.198 285.920,142.625 286.311 C 143.051 286.702,144.030 287.460,144.800 287.995 C 146.634 289.270,149.600 292.388,149.600 293.041 C 149.600 293.648,151.235 296.541,151.687 296.733 C 151.859 296.807,152.000 297.212,152.000 297.633 C 152.000 298.055,152.180 298.400,152.400 298.400 C 152.620 298.400,152.800 298.760,152.800 299.200 C 152.800 299.640,152.980 300.000,153.200 300.000 C 153.420 300.000,153.600 300.456,153.600 301.013 C 153.600 301.569,153.843 302.118,154.141 302.233 C 154.475 302.361,154.608 302.822,154.490 303.443 C 154.290 304.485,155.776 306.379,156.326 305.785 C 156.477 305.623,156.375 305.410,156.100 305.312 C 155.816 305.210,155.600 304.458,155.600 303.567 C 155.600 302.705,155.420 302.000,155.200 302.000 C 154.980 302.000,154.800 301.651,154.800 301.224 C 154.800 300.797,154.620 300.336,154.400 300.200 C 154.180 300.064,154.000 299.513,154.000 298.976 C 154.000 298.439,153.820 298.000,153.600 298.000 C 153.380 298.000,153.200 297.680,153.200 297.288 C 153.200 296.897,152.840 296.317,152.400 296.000 C 151.960 295.683,151.600 295.103,151.600 294.712 C 151.600 294.320,151.420 294.000,151.200 294.000 C 150.980 294.000,150.800 293.571,150.800 293.046 C 150.800 291.999,146.072 286.800,145.119 286.800 C 144.821 286.800,144.317 286.440,144.000 286.000 C 143.683 285.560,143.143 285.200,142.800 285.200 C 142.457 285.200,141.917 284.840,141.600 284.400 C 141.283 283.960,140.714 283.600,140.335 283.600 C 139.957 283.600,139.536 283.420,139.400 283.200 C 139.264 282.980,138.353 282.800,137.376 282.800 C 136.399 282.800,135.600 282.620,135.600 282.400 C 135.600 282.180,134.880 282.000,134.000 282.000 C 133.120 282.000,132.400 281.820,132.400 281.600 C 132.400 281.380,131.410 281.200,130.200 281.200 C 128.990 281.200,128.000 281.377,128.000 281.592 M323.600 281.557 C 323.600 281.754,323.885 282.024,324.233 282.157 C 325.628 282.693,328.206 282.257,327.774 281.558 C 327.486 281.091,323.600 281.090,323.600 281.557 M334.626 281.558 C 334.194 282.257,336.772 282.693,338.167 282.157 C 338.515 282.024,338.800 281.754,338.800 281.557 C 338.800 281.090,334.914 281.091,334.626 281.558 M320.400 282.357 C 320.400 282.806,322.307 283.305,322.818 282.989 C 323.635 282.484,323.136 282.000,321.800 282.000 C 321.030 282.000,320.400 282.160,320.400 282.357 M339.200 282.376 C 339.200 283.005,339.991 283.289,341.023 283.030 C 342.477 282.665,342.204 282.000,340.600 282.000 C 339.830 282.000,339.200 282.169,339.200 282.376 M315.600 284.000 C 314.830 284.659,314.015 285.199,313.788 285.199 C 313.562 285.200,313.117 285.560,312.800 286.000 C 312.483 286.440,311.979 286.800,311.681 286.800 C 311.063 286.800,306.000 291.880,306.000 292.500 C 306.000 292.723,305.684 293.197,305.297 293.553 C 304.911 293.909,304.340 294.695,304.030 295.300 C 303.719 295.905,303.315 296.400,303.132 296.400 C 302.950 296.400,302.800 296.760,302.800 297.200 C 302.800 297.640,302.620 298.000,302.400 298.000 C 302.180 298.000,302.000 298.349,302.000 298.776 C 302.000 299.203,301.820 299.664,301.600 299.800 C 301.380 299.936,301.200 300.476,301.200 301.000 C 301.200 301.524,301.020 302.064,300.800 302.200 C 300.580 302.336,300.400 303.052,300.400 303.790 C 300.400 304.529,300.175 305.214,299.900 305.312 C 299.625 305.410,299.523 305.623,299.674 305.785 C 300.224 306.379,301.710 304.485,301.510 303.443 C 301.392 302.822,301.525 302.361,301.859 302.233 C 302.157 302.118,302.400 301.569,302.400 301.013 C 302.400 300.456,302.580 300.000,302.800 300.000 C 303.020 300.000,303.200 299.640,303.200 299.200 C 303.200 298.760,303.380 298.400,303.600 298.400 C 303.820 298.400,304.000 298.040,304.000 297.600 C 304.000 297.160,304.180 296.800,304.400 296.800 C 304.620 296.800,304.800 296.564,304.800 296.275 C 304.800 295.987,305.120 295.402,305.511 294.975 C 305.902 294.549,306.664 293.570,307.204 292.800 C 307.745 292.030,308.730 290.857,309.393 290.193 C 310.057 289.530,311.230 288.545,312.000 288.004 C 312.770 287.464,313.749 286.702,314.175 286.311 C 314.602 285.920,315.110 285.600,315.304 285.600 C 315.749 285.600,316.800 284.566,316.800 284.129 C 316.800 283.948,317.458 283.800,318.262 283.800 C 319.075 283.800,319.801 283.578,319.896 283.300 C 320.266 282.216,317.078 282.735,315.600 284.000 M64.121 294.260 C 63.994 294.594,63.573 294.708,63.002 294.565 C 62.499 294.438,61.967 294.530,61.820 294.768 C 61.673 295.005,61.203 295.200,60.776 295.200 C 60.349 295.200,60.000 295.336,60.000 295.502 C 60.000 295.669,59.459 296.044,58.797 296.337 C 57.243 297.025,53.025 301.243,52.337 302.797 C 52.044 303.459,51.669 304.000,51.502 304.000 C 51.336 304.000,51.200 304.324,51.200 304.720 C 51.200 305.116,51.010 305.630,50.778 305.862 C 50.284 306.356,50.715 308.500,51.243 308.174 C 51.439 308.052,51.600 307.513,51.600 306.976 C 51.600 306.439,51.780 306.000,52.000 306.000 C 52.220 306.000,52.400 305.640,52.400 305.200 C 52.400 304.760,52.580 304.400,52.800 304.400 C 53.020 304.400,53.200 304.128,53.200 303.797 C 53.200 302.555,58.555 297.200,59.797 297.200 C 60.128 297.200,60.401 297.065,60.403 296.900 C 60.407 296.499,62.381 295.600,63.256 295.600 C 63.639 295.600,64.064 295.420,64.200 295.200 C 64.340 294.973,66.330 294.800,68.800 294.800 C 71.270 294.800,73.260 294.973,73.400 295.200 C 73.536 295.420,74.087 295.600,74.624 295.600 C 75.161 295.600,75.600 295.780,75.600 296.000 C 75.600 296.220,75.960 296.400,76.400 296.400 C 76.840 296.400,77.200 296.580,77.200 296.800 C 77.200 297.020,77.494 297.200,77.853 297.200 C 78.212 297.200,78.797 297.517,79.153 297.904 C 79.509 298.292,80.475 299.111,81.300 299.725 C 82.321 300.485,82.800 301.153,82.800 301.820 C 82.800 302.359,82.980 302.800,83.200 302.800 C 83.420 302.800,83.600 303.160,83.600 303.600 C 83.600 304.040,83.780 304.400,84.000 304.400 C 84.220 304.400,84.400 304.760,84.400 305.200 C 84.400 305.640,84.580 306.000,84.800 306.000 C 85.020 306.000,85.200 306.360,85.200 306.800 C 85.200 307.765,85.925 307.861,86.278 306.942 C 86.422 306.567,86.273 306.095,85.930 305.842 C 85.600 305.599,85.413 305.154,85.514 304.854 C 85.615 304.553,85.541 304.193,85.349 304.054 C 84.832 303.677,84.000 302.089,84.000 301.477 C 84.000 300.831,81.294 297.600,80.752 297.600 C 80.540 297.600,79.980 297.240,79.508 296.800 C 79.036 296.360,78.413 296.000,78.125 296.000 C 77.836 296.000,77.600 295.820,77.600 295.600 C 77.600 295.380,77.251 295.200,76.824 295.200 C 76.397 295.200,75.927 295.005,75.780 294.768 C 75.633 294.530,75.097 294.439,74.589 294.567 C 74.027 294.708,73.601 294.603,73.500 294.299 C 73.253 293.559,64.405 293.522,64.121 294.260 M120.116 294.275 C 119.997 294.584,119.602 294.728,119.213 294.604 C 117.374 294.020,108.800 301.380,108.800 303.544 C 108.800 303.795,108.620 304.000,108.400 304.000 C 108.180 304.000,108.000 304.349,108.000 304.776 C 108.000 305.203,107.805 305.673,107.568 305.820 C 107.330 305.967,107.239 306.503,107.367 307.011 C 107.508 307.573,107.403 307.999,107.099 308.100 C 106.413 308.329,106.336 316.800,107.020 316.800 C 107.298 316.800,107.415 317.187,107.307 317.753 C 107.207 318.277,107.322 318.828,107.562 318.977 C 107.803 319.125,108.000 319.597,108.000 320.024 C 108.000 320.451,108.180 320.800,108.400 320.800 C 108.620 320.800,108.800 321.036,108.800 321.325 C 108.800 321.613,109.160 322.236,109.600 322.708 C 110.040 323.180,110.400 323.718,110.400 323.902 C 110.400 324.317,113.319 327.200,113.739 327.200 C 113.906 327.200,114.603 327.723,115.287 328.362 C 115.971 329.002,116.748 329.441,117.014 329.339 C 117.279 329.237,117.612 329.453,117.752 329.819 C 117.933 330.290,118.287 330.415,118.962 330.245 C 119.577 330.091,119.991 330.198,120.124 330.547 C 120.282 330.957,121.413 331.088,124.800 331.088 C 128.187 331.088,129.318 330.957,129.476 330.547 C 129.606 330.207,130.023 330.091,130.598 330.235 C 131.101 330.362,131.633 330.270,131.780 330.032 C 131.927 329.795,132.397 329.600,132.824 329.600 C 133.251 329.600,133.600 329.420,133.600 329.200 C 133.600 328.980,133.825 328.797,134.100 328.793 C 135.480 328.773,141.573 322.680,141.593 321.300 C 141.597 321.025,141.780 320.800,142.000 320.800 C 142.220 320.800,142.400 320.451,142.400 320.024 C 142.400 319.597,142.595 319.127,142.832 318.980 C 143.070 318.833,143.157 318.282,143.025 317.756 C 142.863 317.112,142.956 316.800,143.309 316.800 C 144.086 316.800,144.129 308.424,143.354 308.127 C 142.998 307.991,142.890 307.581,143.045 306.962 C 143.207 306.317,143.091 305.933,142.687 305.778 C 142.327 305.640,142.169 305.239,142.291 304.774 C 142.402 304.348,142.292 304.000,142.047 304.000 C 141.801 304.000,141.600 303.764,141.600 303.475 C 141.600 303.187,141.240 302.564,140.800 302.092 C 140.360 301.620,140.000 301.082,140.000 300.898 C 140.000 300.486,137.083 297.600,136.666 297.600 C 136.501 297.600,135.980 297.240,135.508 296.800 C 135.036 296.360,134.413 296.000,134.125 296.000 C 133.836 296.000,133.600 295.820,133.600 295.600 C 133.600 295.380,133.251 295.200,132.824 295.200 C 132.397 295.200,131.927 295.005,131.780 294.768 C 131.633 294.530,131.097 294.439,130.589 294.567 C 130.027 294.708,129.601 294.603,129.500 294.299 C 129.249 293.547,120.404 293.524,120.116 294.275 M326.521 294.260 C 326.394 294.594,325.973 294.708,325.402 294.565 C 324.899 294.438,324.367 294.530,324.220 294.768 C 324.073 295.005,323.603 295.200,323.176 295.200 C 322.749 295.200,322.400 295.380,322.400 295.600 C 322.400 295.820,322.175 296.001,321.900 296.003 C 321.125 296.008,316.800 299.594,316.800 300.232 C 316.800 300.545,316.620 300.800,316.400 300.800 C 316.180 300.800,316.000 301.034,316.000 301.320 C 316.000 302.056,315.059 303.993,314.700 303.997 C 314.535 303.999,314.400 304.349,314.400 304.776 C 314.400 305.203,314.205 305.673,313.968 305.820 C 313.730 305.967,313.639 306.503,313.767 307.011 C 313.908 307.573,313.803 307.999,313.499 308.100 C 312.813 308.329,312.736 316.800,313.420 316.800 C 313.698 316.800,313.815 317.187,313.707 317.753 C 313.607 318.277,313.722 318.828,313.962 318.977 C 314.203 319.125,314.400 319.597,314.400 320.024 C 314.400 320.451,314.535 320.801,314.700 320.803 C 315.041 320.807,316.000 322.728,316.000 323.408 C 316.000 323.992,318.747 327.200,319.248 327.200 C 319.460 327.200,320.020 327.560,320.492 328.000 C 320.964 328.440,321.587 328.800,321.875 328.800 C 322.164 328.800,322.400 329.001,322.400 329.247 C 322.400 329.492,322.748 329.602,323.174 329.491 C 323.639 329.369,324.040 329.527,324.178 329.887 C 324.333 330.291,324.717 330.407,325.362 330.245 C 325.977 330.091,326.391 330.198,326.524 330.547 C 326.682 330.957,327.813 331.088,331.200 331.088 C 334.587 331.088,335.718 330.957,335.876 330.547 C 336.006 330.207,336.423 330.091,336.998 330.235 C 337.501 330.362,338.033 330.270,338.180 330.032 C 338.327 329.795,338.797 329.600,339.224 329.600 C 339.651 329.600,340.000 329.420,340.000 329.200 C 340.000 328.980,340.225 328.797,340.500 328.793 C 341.047 328.785,343.180 327.186,344.783 325.583 C 346.386 323.980,347.985 321.847,347.993 321.300 C 347.997 321.025,348.180 320.800,348.400 320.800 C 348.620 320.800,348.800 320.476,348.800 320.080 C 348.800 319.684,348.998 319.162,349.240 318.920 C 349.751 318.409,349.324 316.676,348.771 317.018 C 348.567 317.144,348.400 317.597,348.400 318.024 C 348.400 318.451,348.220 318.800,348.000 318.800 C 347.780 318.800,347.600 319.160,347.600 319.600 C 347.600 320.040,347.420 320.400,347.200 320.400 C 346.980 320.400,346.800 320.667,346.800 320.993 C 346.800 321.532,345.675 323.006,343.940 324.740 C 342.206 326.475,340.732 327.600,340.193 327.600 C 339.867 327.600,339.600 327.780,339.600 328.000 C 339.600 328.220,339.240 328.400,338.800 328.400 C 338.360 328.400,338.000 328.580,338.000 328.800 C 338.000 329.020,337.651 329.200,337.224 329.200 C 336.797 329.200,336.336 329.380,336.200 329.600 C 336.058 329.830,333.937 330.000,331.200 330.000 C 328.463 330.000,326.342 329.830,326.200 329.600 C 326.064 329.380,325.603 329.200,325.176 329.200 C 324.749 329.200,324.400 329.020,324.400 328.800 C 324.400 328.580,324.040 328.400,323.600 328.400 C 323.160 328.400,322.800 328.220,322.800 328.000 C 322.800 327.780,322.480 327.600,322.088 327.600 C 321.697 327.600,321.117 327.240,320.800 326.800 C 320.483 326.360,320.002 326.000,319.732 326.000 C 319.088 326.000,317.200 323.512,317.200 322.662 C 317.200 322.298,317.065 321.999,316.900 321.997 C 316.541 321.993,315.600 320.056,315.600 319.320 C 315.600 319.034,315.420 318.800,315.200 318.800 C 314.980 318.800,314.800 318.361,314.800 317.824 C 314.800 317.287,314.620 316.736,314.400 316.600 C 314.177 316.462,314.000 314.604,314.000 312.400 C 314.000 310.196,314.177 308.338,314.400 308.200 C 314.620 308.064,314.800 307.513,314.800 306.976 C 314.800 306.439,314.980 306.000,315.200 306.000 C 315.420 306.000,315.600 305.640,315.600 305.200 C 315.600 304.760,315.780 304.400,316.000 304.400 C 316.220 304.400,316.400 304.040,316.400 303.600 C 316.400 303.160,316.580 302.800,316.800 302.800 C 317.020 302.800,317.200 302.466,317.200 302.058 C 317.200 300.934,321.040 297.200,322.197 297.200 C 322.528 297.200,322.801 297.065,322.803 296.900 C 322.807 296.499,324.781 295.600,325.656 295.600 C 326.039 295.600,326.464 295.420,326.600 295.200 C 326.740 294.973,328.730 294.800,331.200 294.800 C 333.670 294.800,335.660 294.973,335.800 295.200 C 335.936 295.420,336.487 295.600,337.024 295.600 C 337.561 295.600,338.000 295.780,338.000 296.000 C 338.000 296.220,338.360 296.400,338.800 296.400 C 339.240 296.400,339.600 296.580,339.600 296.800 C 339.600 297.020,339.894 297.200,340.253 297.200 C 340.612 297.200,341.197 297.517,341.553 297.904 C 341.909 298.292,342.875 299.111,343.700 299.725 C 344.525 300.339,345.200 301.062,345.200 301.332 C 345.200 301.602,345.560 302.083,346.000 302.400 C 346.440 302.717,346.800 303.297,346.800 303.688 C 346.800 304.080,346.980 304.400,347.200 304.400 C 347.420 304.400,347.600 304.760,347.600 305.200 C 347.600 305.640,347.780 306.000,348.000 306.000 C 348.220 306.000,348.400 306.360,348.400 306.800 C 348.400 307.765,349.125 307.861,349.478 306.942 C 349.619 306.573,349.476 306.090,349.150 305.842 C 348.832 305.599,348.636 305.085,348.715 304.700 C 348.794 304.315,348.665 304.000,348.429 304.000 C 348.193 304.000,348.000 303.764,348.000 303.475 C 348.000 303.187,347.640 302.564,347.200 302.092 C 346.760 301.620,346.400 301.082,346.400 300.898 C 346.400 300.486,343.483 297.600,343.066 297.600 C 342.901 297.600,342.380 297.240,341.908 296.800 C 341.436 296.360,340.813 296.000,340.525 296.000 C 340.236 296.000,340.000 295.820,340.000 295.600 C 340.000 295.380,339.651 295.200,339.224 295.200 C 338.797 295.200,338.327 295.005,338.180 294.768 C 338.033 294.530,337.497 294.439,336.989 294.567 C 336.427 294.708,336.001 294.603,335.900 294.299 C 335.653 293.559,326.805 293.522,326.521 294.260 M129.400 295.200 C 129.536 295.420,130.087 295.600,130.624 295.600 C 131.161 295.600,131.600 295.780,131.600 296.000 C 131.600 296.220,131.960 296.400,132.400 296.400 C 132.840 296.400,133.200 296.580,133.200 296.800 C 133.200 297.020,133.494 297.200,133.853 297.200 C 134.212 297.200,134.797 297.517,135.153 297.904 C 135.509 298.292,136.475 299.111,137.300 299.725 C 138.125 300.339,138.800 301.062,138.800 301.332 C 138.800 301.602,139.160 302.083,139.600 302.400 C 140.040 302.717,140.400 303.297,140.400 303.688 C 140.400 304.080,140.580 304.400,140.800 304.400 C 141.020 304.400,141.200 304.760,141.200 305.200 C 141.200 305.640,141.380 306.000,141.600 306.000 C 141.820 306.000,142.000 306.349,142.000 306.776 C 142.000 307.203,142.180 307.664,142.400 307.800 C 142.627 307.940,142.800 309.930,142.800 312.400 C 142.800 314.870,142.627 316.860,142.400 317.000 C 142.180 317.136,142.000 317.597,142.000 318.024 C 142.000 318.451,141.820 318.800,141.600 318.800 C 141.380 318.800,141.200 319.160,141.200 319.600 C 141.200 320.040,141.020 320.400,140.800 320.400 C 140.580 320.400,140.400 320.667,140.400 320.993 C 140.400 322.182,134.982 327.600,133.793 327.600 C 133.467 327.600,133.200 327.780,133.200 328.000 C 133.200 328.220,132.840 328.400,132.400 328.400 C 131.960 328.400,131.600 328.580,131.600 328.800 C 131.600 329.020,131.251 329.200,130.824 329.200 C 130.397 329.200,129.936 329.380,129.800 329.600 C 129.658 329.830,127.537 330.000,124.800 330.000 C 122.063 330.000,119.942 329.830,119.800 329.600 C 119.664 329.380,119.243 329.200,118.865 329.200 C 118.486 329.200,117.917 328.840,117.600 328.400 C 117.283 327.960,116.743 327.600,116.400 327.600 C 116.057 327.600,115.517 327.240,115.200 326.800 C 114.883 326.360,114.402 326.000,114.132 326.000 C 113.862 326.000,113.139 325.325,112.525 324.500 C 111.911 323.675,111.137 322.728,110.804 322.396 C 109.967 321.559,109.200 320.129,109.200 319.405 C 109.200 319.072,109.020 318.800,108.800 318.800 C 108.580 318.800,108.400 318.361,108.400 317.824 C 108.400 317.287,108.220 316.736,108.000 316.600 C 107.777 316.462,107.600 314.604,107.600 312.400 C 107.600 310.196,107.777 308.338,108.000 308.200 C 108.220 308.064,108.400 307.513,108.400 306.976 C 108.400 306.439,108.580 306.000,108.800 306.000 C 109.020 306.000,109.200 305.640,109.200 305.200 C 109.200 304.760,109.380 304.400,109.600 304.400 C 109.820 304.400,110.000 304.128,110.000 303.797 C 110.000 302.733,115.313 297.200,116.335 297.200 C 116.522 297.200,117.002 296.840,117.400 296.400 C 117.798 295.960,118.535 295.600,119.038 295.600 C 119.541 295.600,120.064 295.420,120.200 295.200 C 120.340 294.973,122.330 294.800,124.800 294.800 C 127.270 294.800,129.260 294.973,129.400 295.200 M86.000 312.343 C 86.000 314.851,85.828 316.859,85.600 317.000 C 85.380 317.136,85.200 317.597,85.200 318.024 C 85.200 318.451,85.020 318.800,84.800 318.800 C 84.580 318.800,84.400 319.160,84.400 319.600 C 84.400 320.040,84.220 320.400,84.000 320.400 C 83.780 320.400,83.600 320.760,83.600 321.200 C 83.600 321.640,83.420 322.000,83.200 322.000 C 82.980 322.000,82.800 322.334,82.800 322.742 C 82.800 323.822,78.907 327.600,77.793 327.600 C 77.467 327.600,77.200 327.780,77.200 328.000 C 77.200 328.220,76.840 328.400,76.400 328.400 C 75.960 328.400,75.600 328.580,75.600 328.800 C 75.600 329.020,75.251 329.200,74.824 329.200 C 74.397 329.200,73.936 329.380,73.800 329.600 C 73.658 329.830,71.537 330.000,68.800 330.000 C 66.063 330.000,63.942 329.830,63.800 329.600 C 63.664 329.380,63.203 329.200,62.776 329.200 C 62.349 329.200,62.000 329.020,62.000 328.800 C 62.000 328.580,61.640 328.400,61.200 328.400 C 60.760 328.400,60.400 328.220,60.400 328.000 C 60.400 327.780,60.080 327.600,59.688 327.600 C 59.297 327.600,58.717 327.240,58.400 326.800 C 58.083 326.360,57.602 326.000,57.332 326.000 C 57.062 326.000,56.339 325.325,55.725 324.500 C 55.111 323.675,54.337 322.728,54.004 322.396 C 53.167 321.559,52.400 320.129,52.400 319.405 C 52.400 319.072,52.220 318.800,52.000 318.800 C 51.780 318.800,51.600 318.361,51.600 317.824 C 51.600 317.287,51.420 316.736,51.200 316.600 C 50.979 316.463,50.800 314.651,50.800 312.543 C 50.800 309.674,50.677 308.774,50.300 308.899 C 49.476 309.172,49.388 315.944,50.205 316.257 C 50.667 316.434,50.774 316.807,50.597 317.613 C 50.461 318.233,50.540 318.839,50.777 318.986 C 51.009 319.129,51.200 319.597,51.200 320.024 C 51.200 320.451,51.380 320.800,51.600 320.800 C 51.820 320.800,52.000 321.036,52.000 321.325 C 52.000 321.613,52.360 322.236,52.800 322.708 C 53.240 323.180,53.600 323.718,53.600 323.902 C 53.600 324.314,56.517 327.200,56.934 327.200 C 57.099 327.200,57.620 327.560,58.092 328.000 C 58.564 328.440,59.187 328.800,59.475 328.800 C 59.764 328.800,60.000 328.980,60.000 329.200 C 60.000 329.420,60.349 329.600,60.776 329.600 C 61.203 329.600,61.673 329.795,61.820 330.032 C 61.967 330.270,62.499 330.362,63.002 330.235 C 63.577 330.091,63.994 330.207,64.124 330.547 C 64.282 330.957,65.413 331.088,68.800 331.088 C 72.187 331.088,73.318 330.957,73.476 330.547 C 73.606 330.207,74.023 330.091,74.598 330.235 C 75.101 330.362,75.633 330.270,75.780 330.032 C 75.927 329.795,76.397 329.600,76.824 329.600 C 77.251 329.600,77.600 329.420,77.600 329.200 C 77.600 328.980,77.836 328.800,78.125 328.800 C 78.413 328.800,78.998 328.485,79.425 328.100 C 79.852 327.715,80.832 326.929,81.605 326.353 C 82.983 325.325,83.400 324.703,84.464 322.100 C 84.756 321.385,85.131 320.800,85.298 320.800 C 85.464 320.800,85.600 320.451,85.600 320.024 C 85.600 319.597,85.795 319.127,86.032 318.980 C 86.270 318.833,86.357 318.282,86.225 317.756 C 86.061 317.105,86.155 316.800,86.519 316.800 C 87.262 316.800,87.244 308.348,86.500 308.100 C 86.120 307.973,86.000 308.993,86.000 312.343 M349.200 312.633 C 349.200 315.521,349.323 316.426,349.700 316.301 C 350.241 316.123,350.615 311.311,350.213 309.708 C 349.684 307.603,349.200 309.002,349.200 312.633 M12.400 315.020 C 12.400 316.124,14.098 317.999,15.100 318.000 C 15.375 318.000,15.600 318.180,15.600 318.400 C 15.600 318.620,15.975 318.800,16.433 318.800 C 17.545 318.800,17.253 318.092,15.802 317.268 C 14.195 316.356,13.711 315.871,13.543 315.005 C 13.307 313.786,12.400 313.798,12.400 315.020 M386.667 314.267 C 386.520 314.413,386.400 314.786,386.400 315.095 C 386.400 315.764,385.793 316.363,384.198 317.268 C 382.747 318.092,382.455 318.800,383.567 318.800 C 384.025 318.800,384.400 318.620,384.400 318.400 C 384.400 318.180,384.625 318.000,384.900 318.000 C 385.883 317.999,387.600 316.125,387.600 315.053 C 387.600 314.035,387.219 313.714,386.667 314.267 M37.200 319.200 C 37.200 319.420,37.380 319.600,37.600 319.600 C 37.820 319.600,38.000 320.142,38.000 320.805 C 38.000 321.468,38.180 322.368,38.400 322.805 C 38.620 323.242,38.980 323.958,39.200 324.395 C 39.420 324.832,39.600 325.552,39.600 325.995 C 39.600 326.438,39.780 326.800,40.000 326.800 C 40.220 326.800,40.400 327.120,40.400 327.512 C 40.400 327.903,40.760 328.483,41.200 328.800 C 41.640 329.117,42.000 329.657,42.000 330.000 C 42.000 330.343,42.360 330.883,42.800 331.200 C 43.240 331.517,43.600 331.992,43.600 332.256 C 43.600 332.844,50.241 339.600,50.819 339.600 C 51.047 339.600,51.620 339.960,52.092 340.400 C 52.564 340.840,53.187 341.200,53.475 341.200 C 53.764 341.200,54.000 341.380,54.000 341.600 C 54.000 341.820,54.362 342.000,54.805 342.000 C 55.248 342.000,55.968 342.180,56.405 342.400 C 56.842 342.620,57.558 342.980,57.995 343.200 C 58.432 343.420,59.332 343.600,59.995 343.600 C 60.658 343.600,61.200 343.780,61.200 344.000 C 61.200 344.515,65.475 344.526,65.793 344.012 C 66.127 343.471,64.228 343.058,62.609 343.321 C 61.622 343.481,61.200 343.376,61.027 342.925 C 60.865 342.503,60.421 342.365,59.611 342.484 C 58.868 342.593,58.356 342.461,58.228 342.128 C 58.116 341.838,57.569 341.600,57.013 341.600 C 56.456 341.600,56.000 341.420,56.000 341.200 C 56.000 340.980,55.640 340.800,55.200 340.800 C 54.760 340.800,54.400 340.620,54.400 340.400 C 54.400 340.180,54.040 340.000,53.600 340.000 C 53.160 340.000,52.800 339.850,52.800 339.668 C 52.800 339.485,52.329 339.083,51.754 338.775 C 50.354 338.026,45.470 333.180,44.556 331.634 C 44.156 330.955,43.686 330.400,43.514 330.400 C 43.341 330.400,43.200 330.164,43.200 329.875 C 43.200 329.587,42.840 328.964,42.400 328.492 C 41.960 328.020,41.600 327.356,41.600 327.017 C 41.600 326.678,41.420 326.400,41.200 326.400 C 40.980 326.400,40.800 326.051,40.800 325.624 C 40.800 325.197,40.620 324.736,40.400 324.600 C 40.180 324.464,40.000 323.998,40.000 323.564 C 40.000 323.130,39.757 322.682,39.459 322.567 C 39.125 322.439,38.992 321.978,39.110 321.357 C 39.240 320.678,39.033 320.104,38.468 319.577 C 37.535 318.708,37.200 318.609,37.200 319.200 M155.050 319.605 C 154.568 320.092,154.368 320.719,154.490 321.361 C 154.608 321.978,154.475 322.439,154.141 322.567 C 153.843 322.682,153.600 323.130,153.600 323.564 C 153.600 323.998,153.420 324.464,153.200 324.600 C 152.980 324.736,152.800 325.197,152.800 325.624 C 152.800 326.051,152.620 326.400,152.400 326.400 C 152.180 326.400,152.000 326.760,152.000 327.200 C 152.000 327.640,151.853 328.000,151.674 328.000 C 151.277 328.000,149.600 331.070,149.600 331.797 C 149.600 332.482,146.062 336.082,144.457 337.030 C 143.766 337.438,143.200 337.914,143.200 338.086 C 143.200 338.259,142.964 338.400,142.675 338.400 C 142.387 338.400,141.764 338.760,141.292 339.200 C 140.820 339.640,140.156 340.000,139.817 340.000 C 139.478 340.000,139.200 340.180,139.200 340.400 C 139.200 340.620,138.851 340.800,138.424 340.800 C 137.997 340.800,137.536 340.980,137.400 341.200 C 137.264 341.420,136.798 341.600,136.364 341.600 C 135.930 341.600,135.484 341.838,135.372 342.128 C 135.244 342.461,134.732 342.593,133.989 342.484 C 133.161 342.362,132.736 342.502,132.563 342.952 C 132.391 343.401,132.028 343.522,131.356 343.353 C 130.107 343.040,127.509 343.529,127.812 344.020 C 128.127 344.528,132.400 344.510,132.400 344.000 C 132.400 343.780,132.942 343.600,133.605 343.600 C 134.268 343.600,135.168 343.420,135.605 343.200 C 136.042 342.980,136.758 342.620,137.195 342.400 C 137.632 342.180,138.352 342.000,138.795 342.000 C 139.238 342.000,139.600 341.820,139.600 341.600 C 139.600 341.380,139.920 341.200,140.312 341.200 C 140.703 341.200,141.283 340.840,141.600 340.400 C 141.917 339.960,142.457 339.600,142.800 339.600 C 143.143 339.600,143.683 339.240,144.000 338.800 C 144.317 338.360,144.797 338.000,145.066 338.000 C 146.017 338.000,150.800 332.810,150.800 331.778 C 150.800 331.240,150.980 330.800,151.200 330.800 C 151.420 330.800,151.600 330.480,151.600 330.088 C 151.600 329.697,151.960 329.117,152.400 328.800 C 152.840 328.483,153.200 327.903,153.200 327.512 C 153.200 327.120,153.380 326.800,153.600 326.800 C 153.820 326.800,154.000 326.438,154.000 325.995 C 154.000 325.552,154.180 324.832,154.400 324.395 C 154.620 323.958,154.980 323.242,155.200 322.805 C 155.420 322.368,155.600 321.468,155.600 320.805 C 155.600 320.142,155.780 319.600,156.000 319.600 C 156.220 319.600,156.400 319.420,156.400 319.200 C 156.400 318.603,155.891 318.755,155.050 319.605 M299.600 319.200 C 299.600 319.420,299.780 319.600,300.000 319.600 C 300.220 319.600,300.400 320.142,300.400 320.805 C 300.400 321.468,300.580 322.368,300.800 322.805 C 301.020 323.242,301.380 323.958,301.600 324.395 C 301.820 324.832,302.000 325.552,302.000 325.995 C 302.000 326.438,302.180 326.800,302.400 326.800 C 302.620 326.800,302.800 327.036,302.800 327.325 C 302.800 327.613,303.160 328.236,303.600 328.708 C 304.040 329.180,304.400 329.804,304.400 330.095 C 304.400 330.386,304.760 330.883,305.200 331.200 C 305.640 331.517,306.000 331.986,306.000 332.242 C 306.000 332.903,311.029 338.000,311.681 338.000 C 311.979 338.000,312.483 338.360,312.800 338.800 C 313.117 339.240,313.625 339.600,313.928 339.600 C 314.231 339.600,314.983 340.140,315.600 340.800 C 316.217 341.460,317.088 342.000,317.537 342.000 C 317.986 342.000,318.464 342.180,318.600 342.400 C 318.736 342.620,319.197 342.800,319.624 342.800 C 320.051 342.800,320.400 342.980,320.400 343.200 C 320.400 343.420,321.030 343.600,321.800 343.600 C 322.822 343.600,323.200 343.426,323.200 342.955 C 323.200 342.467,322.911 342.352,322.015 342.483 C 321.268 342.593,320.756 342.462,320.628 342.128 C 320.516 341.838,319.969 341.600,319.413 341.600 C 318.856 341.600,318.400 341.420,318.400 341.200 C 318.400 340.980,318.128 340.800,317.796 340.800 C 317.464 340.800,316.628 340.260,315.937 339.600 C 315.246 338.940,314.438 338.400,314.141 338.400 C 313.843 338.400,313.600 338.259,313.600 338.086 C 313.600 337.914,313.071 337.460,312.424 337.078 C 310.911 336.184,308.444 333.787,307.198 332.000 C 306.661 331.230,305.902 330.251,305.511 329.825 C 305.120 329.398,304.800 328.813,304.800 328.525 C 304.800 328.236,304.620 328.000,304.400 328.000 C 304.180 328.000,304.000 327.640,304.000 327.200 C 304.000 326.760,303.820 326.400,303.600 326.400 C 303.380 326.400,303.200 326.051,303.200 325.624 C 303.200 325.197,303.020 324.736,302.800 324.600 C 302.580 324.464,302.400 323.998,302.400 323.564 C 302.400 323.130,302.157 322.682,301.859 322.567 C 301.525 322.439,301.392 321.978,301.510 321.357 C 301.640 320.678,301.433 320.104,300.868 319.577 C 299.935 318.708,299.600 318.609,299.600 319.200 M361.450 319.605 C 360.968 320.092,360.768 320.719,360.890 321.361 C 361.008 321.978,360.875 322.439,360.541 322.567 C 360.243 322.682,360.000 323.130,360.000 323.564 C 360.000 323.998,359.820 324.464,359.600 324.600 C 359.380 324.736,359.200 325.197,359.200 325.624 C 359.200 326.051,359.020 326.400,358.800 326.400 C 358.580 326.400,358.400 326.760,358.400 327.200 C 358.400 327.640,358.242 328.000,358.049 328.000 C 357.855 328.000,357.473 328.540,357.200 329.200 C 356.927 329.860,356.584 330.400,356.438 330.400 C 356.292 330.400,355.844 330.955,355.444 331.634 C 354.530 333.180,349.646 338.026,348.246 338.775 C 347.671 339.083,347.200 339.485,347.200 339.668 C 347.200 339.850,346.840 340.000,346.400 340.000 C 345.960 340.000,345.600 340.180,345.600 340.400 C 345.600 340.620,345.240 340.800,344.800 340.800 C 344.360 340.800,344.000 340.980,344.000 341.200 C 344.000 341.420,343.544 341.600,342.987 341.600 C 342.431 341.600,341.884 341.838,341.772 342.128 C 341.644 342.462,341.132 342.593,340.385 342.483 C 339.489 342.352,339.200 342.467,339.200 342.955 C 339.200 343.426,339.578 343.600,340.600 343.600 C 341.370 343.600,342.000 343.420,342.000 343.200 C 342.000 342.980,342.349 342.800,342.776 342.800 C 343.203 342.800,343.664 342.620,343.800 342.400 C 343.936 342.180,344.487 342.000,345.024 342.000 C 345.561 342.000,346.000 341.820,346.000 341.600 C 346.000 341.380,346.320 341.200,346.712 341.200 C 347.103 341.200,347.683 340.840,348.000 340.400 C 348.317 339.960,348.818 339.600,349.113 339.600 C 349.735 339.600,356.400 332.932,356.400 332.310 C 356.400 332.081,356.715 331.602,357.100 331.246 C 357.896 330.509,359.141 328.542,359.471 327.500 C 359.593 327.115,359.852 326.800,360.047 326.800 C 360.241 326.800,360.400 326.438,360.400 325.995 C 360.400 325.552,360.580 324.832,360.800 324.395 C 361.020 323.958,361.380 323.242,361.600 322.805 C 361.820 322.368,362.000 321.468,362.000 320.805 C 362.000 320.142,362.180 319.600,362.400 319.600 C 362.620 319.600,362.800 319.420,362.800 319.200 C 362.800 318.603,362.291 318.755,361.450 319.605 M95.903 327.100 C 94.505 329.867,93.422 331.298,90.400 334.370 C 88.122 336.686,86.107 338.400,85.663 338.400 C 85.474 338.400,84.754 338.940,84.063 339.600 C 83.372 340.260,82.546 340.800,82.227 340.800 C 81.908 340.800,81.536 340.980,81.400 341.200 C 81.264 341.420,80.798 341.600,80.364 341.600 C 79.930 341.600,79.474 341.862,79.351 342.183 C 79.195 342.589,78.777 342.695,77.970 342.534 C 77.118 342.364,76.746 342.476,76.560 342.961 C 76.365 343.468,75.998 343.561,74.956 343.365 C 73.417 343.077,71.600 343.424,71.600 344.008 C 71.600 344.223,72.680 344.400,74.000 344.400 C 75.333 344.400,76.400 344.222,76.400 344.000 C 76.400 343.780,77.019 343.600,77.776 343.600 C 78.533 343.600,79.264 343.420,79.400 343.200 C 79.536 342.980,79.997 342.800,80.424 342.800 C 80.851 342.800,81.200 342.620,81.200 342.400 C 81.200 342.180,81.623 342.000,82.141 342.000 C 82.658 342.000,83.646 341.460,84.337 340.800 C 85.028 340.140,85.729 339.600,85.896 339.599 C 86.063 339.599,86.830 339.059,87.600 338.400 C 88.370 337.741,89.141 337.201,89.313 337.201 C 89.762 337.200,92.043 334.844,93.188 333.200 C 93.724 332.430,94.486 331.509,94.881 331.153 C 95.276 330.797,95.600 330.212,95.600 329.853 C 95.600 329.494,95.780 329.200,96.000 329.200 C 96.220 329.200,96.400 328.840,96.400 328.400 C 96.400 327.960,96.580 327.600,96.800 327.600 C 97.020 327.600,97.200 327.960,97.200 328.400 C 97.200 328.840,97.380 329.200,97.600 329.200 C 97.820 329.200,98.000 329.494,98.000 329.853 C 98.000 330.212,98.324 330.797,98.719 331.153 C 99.114 331.509,99.875 332.430,100.410 333.200 C 101.638 334.968,102.632 335.962,104.400 337.190 C 105.170 337.725,106.091 338.486,106.447 338.881 C 106.803 339.276,107.388 339.600,107.747 339.600 C 108.106 339.600,108.400 339.780,108.400 340.000 C 108.400 340.220,108.625 340.404,108.900 340.409 C 109.175 340.414,109.850 340.770,110.400 341.200 C 110.950 341.630,111.805 341.986,112.300 341.991 C 112.795 341.996,113.200 342.180,113.200 342.400 C 113.200 342.620,113.549 342.800,113.976 342.800 C 114.403 342.800,114.864 342.980,115.000 343.200 C 115.136 343.420,115.687 343.600,116.224 343.600 C 116.761 343.600,117.200 343.780,117.200 344.000 C 117.200 344.222,118.267 344.400,119.600 344.400 C 120.920 344.400,122.000 344.223,122.000 344.008 C 122.000 343.424,120.183 343.077,118.644 343.365 C 117.604 343.561,117.235 343.468,117.042 342.964 C 116.885 342.555,116.501 342.385,116.021 342.510 C 115.578 342.626,115.161 342.476,115.038 342.156 C 114.921 341.850,114.568 341.600,114.253 341.600 C 113.735 341.600,110.939 340.242,108.427 338.770 C 104.761 336.623,99.760 331.183,97.697 327.100 C 97.391 326.495,96.988 326.000,96.800 326.000 C 96.612 326.000,96.209 326.495,95.903 327.100 M324.100 343.465 C 322.924 343.939,323.761 344.400,325.800 344.400 C 327.925 344.400,328.673 343.944,327.367 343.443 C 326.632 343.161,324.824 343.173,324.100 343.465 M334.900 343.465 C 333.724 343.939,334.561 344.400,336.600 344.400 C 338.725 344.400,339.473 343.944,338.167 343.443 C 337.432 343.161,335.624 343.173,334.900 343.465 " stroke="none" fill="#ffffff" fill-rule="evenodd"></path><path id="path1" d="M74.800 50.000 L 74.800 56.400 81.200 56.400 L 87.600 56.400 87.600 50.000 L 87.600 43.600 81.200 43.600 L 74.800 43.600 74.800 50.000 M99.600 50.000 L 99.600 56.400 137.600 56.400 L 175.600 56.400 175.600 50.000 L 175.600 43.600 137.600 43.600 L 99.600 43.600 99.600 50.000 M124.400 75.200 L 124.400 82.000 162.400 82.000 L 200.400 82.000 200.400 75.200 L 200.400 68.400 162.400 68.400 L 124.400 68.400 124.400 75.200 M16.721 93.933 C 16.348 94.300,15.493 95.106,14.821 95.725 C 14.150 96.344,13.600 97.205,13.600 97.638 C 13.600 98.071,13.330 98.529,13.000 98.655 C 12.086 99.006,12.086 313.794,13.000 314.145 C 13.330 314.271,13.600 314.663,13.600 315.016 C 13.600 315.715,14.521 316.800,15.113 316.800 C 15.317 316.800,15.969 317.250,16.562 317.800 L 17.641 318.800 27.637 318.800 C 38.715 318.800,39.563 318.989,39.110 321.357 C 38.992 321.978,39.125 322.439,39.459 322.567 C 39.757 322.682,40.000 323.130,40.000 323.564 C 40.000 323.998,40.180 324.464,40.400 324.600 C 40.620 324.736,40.800 325.197,40.800 325.624 C 40.800 326.051,40.980 326.400,41.200 326.400 C 41.420 326.400,41.600 326.678,41.600 327.017 C 41.600 327.356,41.960 328.020,42.400 328.492 C 42.840 328.964,43.200 329.587,43.200 329.875 C 43.200 330.164,43.341 330.400,43.514 330.400 C 43.686 330.400,44.156 330.955,44.556 331.634 C 45.470 333.180,50.354 338.026,51.754 338.775 C 52.329 339.083,52.800 339.485,52.800 339.668 C 52.800 339.850,53.160 340.000,53.600 340.000 C 54.040 340.000,54.400 340.180,54.400 340.400 C 54.400 340.620,54.760 340.800,55.200 340.800 C 55.640 340.800,56.000 340.980,56.000 341.200 C 56.000 341.420,56.456 341.600,57.013 341.600 C 57.569 341.600,58.116 341.838,58.228 342.128 C 58.356 342.461,58.868 342.593,59.611 342.484 C 60.421 342.365,60.865 342.503,61.027 342.925 C 61.200 343.376,61.622 343.481,62.609 343.321 C 64.228 343.058,66.127 343.471,65.793 344.012 C 65.349 344.729,71.175 344.483,71.904 343.753 C 72.393 343.264,73.012 343.161,74.441 343.330 C 75.930 343.507,76.383 343.421,76.572 342.928 C 76.745 342.477,77.136 342.367,77.970 342.534 C 78.777 342.695,79.195 342.589,79.351 342.183 C 79.474 341.862,79.930 341.600,80.364 341.600 C 80.798 341.600,81.264 341.420,81.400 341.200 C 81.536 340.980,81.908 340.800,82.227 340.800 C 82.546 340.800,83.372 340.260,84.063 339.600 C 84.754 338.940,85.474 338.400,85.663 338.400 C 86.107 338.400,88.122 336.686,90.400 334.370 C 93.422 331.298,94.505 329.867,95.903 327.100 C 96.603 325.715,96.997 325.715,97.697 327.100 C 99.760 331.183,104.761 336.623,108.427 338.770 C 110.939 340.242,113.735 341.600,114.253 341.600 C 114.568 341.600,114.921 341.850,115.038 342.156 C 115.161 342.476,115.578 342.626,116.021 342.510 C 116.490 342.388,116.883 342.552,117.029 342.932 C 117.217 343.421,117.674 343.506,119.159 343.330 C 120.588 343.161,121.207 343.264,121.696 343.753 C 122.418 344.475,128.251 344.730,127.812 344.020 C 127.509 343.529,130.107 343.040,131.356 343.353 C 132.028 343.522,132.391 343.401,132.563 342.952 C 132.736 342.502,133.161 342.362,133.989 342.484 C 134.732 342.593,135.244 342.461,135.372 342.128 C 135.484 341.838,135.930 341.600,136.364 341.600 C 136.798 341.600,137.264 341.420,137.400 341.200 C 137.536 340.980,137.997 340.800,138.424 340.800 C 138.851 340.800,139.200 340.620,139.200 340.400 C 139.200 340.180,139.478 340.000,139.817 340.000 C 140.156 340.000,140.820 339.640,141.292 339.200 C 141.764 338.760,142.387 338.400,142.675 338.400 C 142.964 338.400,143.200 338.259,143.200 338.086 C 143.200 337.914,143.766 337.438,144.457 337.030 C 146.062 336.082,149.600 332.482,149.600 331.797 C 149.600 331.070,151.277 328.000,151.674 328.000 C 151.853 328.000,152.000 327.640,152.000 327.200 C 152.000 326.760,152.180 326.400,152.400 326.400 C 152.620 326.400,152.800 326.051,152.800 325.624 C 152.800 325.197,152.980 324.736,153.200 324.600 C 153.420 324.464,153.600 323.998,153.600 323.564 C 153.600 323.130,153.843 322.682,154.141 322.567 C 154.475 322.439,154.608 321.978,154.490 321.357 C 153.959 318.580,147.627 318.800,228.000 318.800 C 308.373 318.800,302.041 318.580,301.510 321.357 C 301.392 321.978,301.525 322.439,301.859 322.567 C 302.157 322.682,302.400 323.130,302.400 323.564 C 302.400 323.998,302.580 324.464,302.800 324.600 C 303.020 324.736,303.200 325.197,303.200 325.624 C 303.200 326.051,303.380 326.400,303.600 326.400 C 303.820 326.400,304.000 326.760,304.000 327.200 C 304.000 327.640,304.180 328.000,304.400 328.000 C 304.620 328.000,304.800 328.236,304.800 328.525 C 304.800 328.813,305.120 329.398,305.511 329.825 C 305.902 330.251,306.661 331.230,307.198 332.000 C 308.444 333.787,310.911 336.184,312.424 337.078 C 313.071 337.460,313.600 337.914,313.600 338.086 C 313.600 338.259,313.843 338.400,314.141 338.400 C 314.438 338.400,315.246 338.940,315.937 339.600 C 316.628 340.260,317.464 340.800,317.796 340.800 C 318.128 340.800,318.400 340.980,318.400 341.200 C 318.400 341.420,318.856 341.600,319.413 341.600 C 319.969 341.600,320.516 341.838,320.628 342.128 C 320.756 342.462,321.268 342.593,322.015 342.483 C 322.898 342.354,323.200 342.469,323.200 342.936 C 323.200 343.449,323.547 343.521,325.125 343.334 C 326.589 343.161,327.204 343.261,327.696 343.753 C 328.611 344.668,333.789 344.668,334.704 343.753 C 335.196 343.261,335.811 343.161,337.275 343.334 C 338.853 343.521,339.200 343.449,339.200 342.936 C 339.200 342.469,339.502 342.354,340.385 342.483 C 341.132 342.593,341.644 342.462,341.772 342.128 C 341.884 341.838,342.431 341.600,342.987 341.600 C 343.544 341.600,344.000 341.420,344.000 341.200 C 344.000 340.980,344.360 340.800,344.800 340.800 C 345.240 340.800,345.600 340.620,345.600 340.400 C 345.600 340.180,345.960 340.000,346.400 340.000 C 346.840 340.000,347.200 339.850,347.200 339.668 C 347.200 339.485,347.671 339.083,348.246 338.775 C 349.646 338.026,354.530 333.180,355.444 331.634 C 355.844 330.955,356.292 330.400,356.438 330.400 C 356.584 330.400,356.927 329.860,357.200 329.200 C 357.473 328.540,357.855 328.000,358.049 328.000 C 358.242 328.000,358.400 327.640,358.400 327.200 C 358.400 326.760,358.580 326.400,358.800 326.400 C 359.020 326.400,359.200 326.051,359.200 325.624 C 359.200 325.197,359.380 324.736,359.600 324.600 C 359.820 324.464,360.000 323.998,360.000 323.564 C 360.000 323.130,360.243 322.682,360.541 322.567 C 360.875 322.439,361.008 321.978,360.890 321.357 C 360.437 318.989,361.285 318.800,372.363 318.800 L 382.359 318.800 383.438 317.800 C 384.031 317.250,384.683 316.800,384.887 316.800 C 385.479 316.800,386.400 315.715,386.400 315.016 C 386.400 314.663,386.670 314.271,387.000 314.145 C 387.911 313.795,387.911 243.005,387.000 242.655 C 386.670 242.529,386.400 242.086,386.400 241.671 C 386.400 240.475,383.398 237.631,380.593 236.170 C 378.507 235.083,377.049 234.249,376.800 234.000 C 376.600 233.800,373.790 232.269,372.103 231.440 C 371.610 231.198,371.205 230.865,371.203 230.700 C 371.201 230.535,370.840 230.400,370.400 230.400 C 369.960 230.400,369.600 230.241,369.600 230.047 C 369.600 229.852,369.285 229.593,368.900 229.471 C 368.215 229.254,365.996 227.996,365.600 227.600 C 365.490 227.490,364.680 227.026,363.800 226.570 C 361.614 225.435,360.239 224.643,360.000 224.379 C 359.890 224.258,359.133 223.848,358.317 223.468 C 357.501 223.089,356.731 222.612,356.605 222.408 C 356.479 222.204,356.384 210.980,356.394 197.464 C 356.410 175.352,356.348 172.866,355.775 172.646 C 355.326 172.473,355.174 171.993,355.258 171.010 C 355.324 170.245,355.158 169.398,354.889 169.129 C 354.620 168.860,354.400 168.316,354.400 167.920 C 354.400 167.524,354.220 167.200,354.000 167.200 C 353.780 167.200,353.600 166.840,353.600 166.400 C 353.600 165.960,353.420 165.600,353.200 165.600 C 352.980 165.600,352.800 165.368,352.800 165.084 C 352.800 164.800,352.080 163.772,351.200 162.800 C 350.320 161.828,349.600 160.815,349.600 160.550 C 349.600 160.284,349.060 159.828,348.400 159.536 C 347.740 159.244,347.200 158.869,347.200 158.702 C 347.200 158.536,346.840 158.400,346.400 158.400 C 345.960 158.400,345.600 158.220,345.600 158.000 C 345.600 157.780,345.276 157.600,344.880 157.600 C 344.484 157.600,343.940 157.380,343.671 157.111 C 343.402 156.842,342.555 156.676,341.790 156.742 C 340.812 156.826,340.326 156.674,340.156 156.231 C 339.939 155.664,336.668 155.600,307.757 155.600 L 275.600 155.600 275.600 127.243 C 275.600 102.405,275.526 98.857,275.000 98.655 C 274.670 98.529,274.400 98.073,274.400 97.643 C 274.400 96.631,272.169 94.400,271.157 94.400 C 270.727 94.400,270.271 94.130,270.145 93.800 C 269.772 92.828,17.711 92.961,16.721 93.933 M262.000 181.200 L 262.000 255.600 143.600 255.600 L 25.200 255.600 25.200 181.200 L 25.200 106.800 143.600 106.800 L 262.000 106.800 262.000 181.200 M340.460 169.300 C 341.552 169.943,342.890 171.284,343.400 172.245 C 343.657 172.730,343.760 181.047,343.687 195.500 L 343.574 218.000 331.187 218.000 L 318.800 218.000 318.800 193.607 L 318.800 169.214 328.700 169.100 C 334.145 169.037,338.827 168.944,339.105 168.893 C 339.383 168.842,339.993 169.025,340.460 169.300 M306.000 197.557 C 306.000 222.395,306.074 225.943,306.600 226.145 C 306.930 226.271,307.200 226.727,307.200 227.157 C 307.200 228.153,309.425 230.400,310.411 230.400 C 310.823 230.400,311.314 230.675,311.503 231.012 C 311.804 231.550,314.035 231.610,329.923 231.512 C 339.865 231.450,348.000 231.535,348.000 231.700 C 348.000 231.865,348.272 232.000,348.604 232.000 C 348.936 232.000,349.772 232.540,350.463 233.200 C 351.154 233.860,351.962 234.400,352.259 234.400 C 352.557 234.400,352.800 234.580,352.800 234.800 C 352.800 235.020,353.160 235.200,353.600 235.200 C 354.040 235.200,354.400 235.359,354.400 235.553 C 354.400 235.748,354.715 236.007,355.100 236.129 C 356.036 236.425,358.166 237.724,358.333 238.100 C 358.407 238.265,358.797 238.400,359.200 238.400 C 359.603 238.400,359.993 238.535,360.067 238.700 C 360.234 239.076,362.364 240.375,363.300 240.671 C 363.685 240.793,364.000 241.052,364.000 241.247 C 364.000 241.441,364.360 241.600,364.800 241.600 C 365.240 241.600,365.600 241.759,365.600 241.953 C 365.600 242.148,365.915 242.407,366.300 242.529 C 367.236 242.825,369.366 244.124,369.533 244.500 C 369.607 244.665,369.997 244.800,370.400 244.800 C 370.803 244.800,371.193 244.935,371.267 245.100 C 371.427 245.461,373.545 246.767,374.437 247.055 C 374.890 247.201,375.047 247.683,374.984 248.730 L 374.895 250.200 363.872 250.306 L 352.849 250.413 351.624 251.637 L 350.400 252.862 350.400 268.400 L 350.400 283.938 351.631 285.169 C 352.308 285.846,353.213 286.400,353.643 286.400 C 354.073 286.400,354.529 286.670,354.655 287.000 C 354.851 287.511,356.361 287.600,364.843 287.600 L 374.800 287.600 374.800 296.800 L 374.800 306.000 368.583 306.000 C 361.652 306.000,360.476 305.609,360.890 303.443 C 361.008 302.822,360.875 302.361,360.541 302.233 C 360.243 302.118,360.000 301.670,360.000 301.236 C 360.000 300.802,359.820 300.336,359.600 300.200 C 359.380 300.064,359.200 299.603,359.200 299.176 C 359.200 298.749,359.020 298.400,358.800 298.400 C 358.580 298.400,358.400 298.040,358.400 297.600 C 358.400 297.160,358.242 296.800,358.049 296.800 C 357.855 296.800,357.473 296.260,357.200 295.600 C 356.927 294.940,356.584 294.400,356.438 294.400 C 356.292 294.400,355.841 293.840,355.437 293.154 C 354.502 291.573,348.941 286.099,347.949 285.784 C 347.537 285.653,347.200 285.378,347.200 285.173 C 347.200 284.968,346.840 284.800,346.400 284.800 C 345.960 284.800,345.600 284.570,345.600 284.289 C 345.600 283.935,345.111 283.826,344.000 283.931 C 342.718 284.054,342.400 283.953,342.400 283.424 C 342.400 282.886,342.141 282.812,341.004 283.026 C 339.919 283.229,339.553 283.142,339.358 282.634 C 339.165 282.132,338.795 282.040,337.756 282.235 C 336.165 282.533,334.264 282.143,334.607 281.588 C 334.756 281.348,333.456 281.200,331.200 281.200 C 328.944 281.200,327.644 281.348,327.793 281.588 C 328.136 282.143,326.235 282.533,324.644 282.235 C 323.612 282.041,323.235 282.133,323.047 282.622 C 322.860 283.108,322.502 283.198,321.572 282.994 C 320.650 282.791,320.217 282.897,319.837 283.417 C 319.479 283.907,318.960 284.056,318.065 283.924 C 317.369 283.822,316.800 283.900,316.800 284.098 C 316.800 284.560,315.764 285.600,315.304 285.600 C 315.110 285.600,314.602 285.920,314.175 286.311 C 313.749 286.702,312.770 287.464,312.000 288.004 C 310.217 289.255,308.455 291.017,307.204 292.800 C 306.664 293.570,305.902 294.549,305.511 294.975 C 305.120 295.402,304.800 295.987,304.800 296.275 C 304.800 296.564,304.620 296.800,304.400 296.800 C 304.180 296.800,304.000 297.160,304.000 297.600 C 304.000 298.040,303.820 298.400,303.600 298.400 C 303.380 298.400,303.200 298.760,303.200 299.200 C 303.200 299.640,303.020 300.000,302.800 300.000 C 302.580 300.000,302.400 300.456,302.400 301.013 C 302.400 301.569,302.157 302.118,301.859 302.233 C 301.525 302.361,301.392 302.822,301.510 303.443 C 301.977 305.883,301.349 306.000,287.817 306.000 L 275.600 306.000 275.600 237.600 L 275.600 169.200 290.800 169.200 L 306.000 169.200 306.000 197.557 M312.400 250.000 L 312.400 256.400 325.200 256.400 L 338.000 256.400 338.000 250.000 L 338.000 243.600 325.200 243.600 L 312.400 243.600 312.400 250.000 M374.800 268.800 L 374.800 274.800 368.800 274.800 L 362.800 274.800 362.800 268.800 L 362.800 262.800 368.800 262.800 L 374.800 262.800 374.800 268.800 M262.000 287.600 L 262.000 306.000 208.983 306.000 C 149.898 306.000,153.964 306.191,154.490 303.443 C 154.608 302.822,154.475 302.361,154.141 302.233 C 153.843 302.118,153.600 301.569,153.600 301.013 C 153.600 300.456,153.420 300.000,153.200 300.000 C 152.980 300.000,152.800 299.640,152.800 299.200 C 152.800 298.760,152.620 298.400,152.400 298.400 C 152.180 298.400,152.000 298.055,152.000 297.633 C 152.000 297.212,151.859 296.807,151.687 296.733 C 151.235 296.541,149.600 293.648,149.600 293.041 C 149.600 292.388,146.634 289.270,144.800 287.995 C 144.030 287.460,143.051 286.702,142.625 286.311 C 142.198 285.920,141.613 285.600,141.325 285.600 C 141.036 285.600,140.800 285.420,140.800 285.200 C 140.800 284.980,140.440 284.800,140.000 284.800 C 139.560 284.800,139.200 284.547,139.200 284.238 C 139.200 283.814,138.810 283.728,137.607 283.890 C 136.364 284.057,135.959 283.958,135.761 283.442 C 135.565 282.932,135.200 282.839,134.158 283.034 C 133.164 283.221,132.749 283.132,132.581 282.695 C 132.413 282.256,131.916 282.153,130.649 282.296 C 129.419 282.434,128.766 282.309,128.301 281.844 C 127.572 281.114,121.349 280.870,121.793 281.588 C 122.136 282.143,120.235 282.533,118.644 282.235 C 117.628 282.044,117.234 282.135,117.055 282.600 C 116.892 283.026,116.518 283.145,115.863 282.980 C 115.190 282.811,114.834 282.935,114.655 283.401 C 114.471 283.880,114.011 284.028,112.981 283.939 C 112.200 283.872,111.434 283.993,111.280 284.208 C 111.126 284.424,110.595 284.825,110.100 285.100 C 107.919 286.312,107.383 286.658,106.227 287.600 C 102.609 290.549,99.375 294.378,97.697 297.700 C 97.391 298.305,96.988 298.800,96.800 298.800 C 96.612 298.800,96.209 298.305,95.903 297.700 C 94.505 294.933,93.422 293.502,90.400 290.430 C 88.198 288.191,86.111 286.400,85.703 286.400 C 85.243 286.399,83.200 284.558,83.200 284.143 C 83.200 283.943,82.482 283.847,81.603 283.931 C 80.401 284.046,79.945 283.923,79.757 283.432 C 79.565 282.932,79.194 282.840,78.158 283.034 C 77.120 283.229,76.751 283.136,76.558 282.634 C 76.365 282.132,75.995 282.040,74.956 282.235 C 73.365 282.533,71.464 282.143,71.807 281.588 C 72.251 280.870,66.028 281.114,65.299 281.844 C 64.834 282.309,64.181 282.434,62.951 282.296 C 61.684 282.153,61.187 282.256,61.019 282.695 C 60.851 283.132,60.436 283.221,59.442 283.034 C 58.406 282.840,58.035 282.932,57.843 283.432 C 57.655 283.923,57.199 284.046,55.997 283.931 C 54.889 283.825,54.400 283.935,54.400 284.289 C 54.400 284.570,54.040 284.800,53.600 284.800 C 53.160 284.800,52.800 284.980,52.800 285.200 C 52.800 285.420,52.569 285.600,52.287 285.600 C 51.647 285.600,46.125 290.912,44.802 292.800 C 44.263 293.570,43.502 294.549,43.111 294.975 C 42.720 295.402,42.400 295.987,42.400 296.275 C 42.400 296.564,42.220 296.800,42.000 296.800 C 41.780 296.800,41.600 297.160,41.600 297.600 C 41.600 298.040,41.420 298.400,41.200 298.400 C 40.980 298.400,40.800 298.760,40.800 299.200 C 40.800 299.640,40.620 300.000,40.400 300.000 C 40.180 300.000,40.000 300.456,40.000 301.013 C 40.000 301.569,39.757 302.118,39.459 302.233 C 39.125 302.361,38.992 302.822,39.110 303.443 C 39.524 305.609,38.348 306.000,31.417 306.000 L 25.200 306.000 25.200 287.600 L 25.200 269.200 143.600 269.200 L 262.000 269.200 262.000 287.600 M73.500 294.299 C 73.601 294.603,74.027 294.708,74.589 294.567 C 75.097 294.439,75.633 294.530,75.780 294.768 C 75.927 295.005,76.397 295.200,76.824 295.200 C 77.251 295.200,77.600 295.380,77.600 295.600 C 77.600 295.820,77.836 296.000,78.125 296.000 C 78.413 296.000,79.036 296.360,79.508 296.800 C 79.980 297.240,80.540 297.600,80.752 297.600 C 81.294 297.600,84.000 300.831,84.000 301.477 C 84.000 302.095,84.834 303.679,85.358 304.060 C 85.555 304.202,85.612 304.593,85.484 304.927 C 85.350 305.274,85.515 305.635,85.868 305.771 C 86.291 305.933,86.410 306.308,86.245 306.962 C 86.090 307.581,86.198 307.991,86.554 308.127 C 87.329 308.424,87.286 316.800,86.509 316.800 C 86.156 316.800,86.063 317.112,86.225 317.756 C 86.357 318.282,86.270 318.833,86.032 318.980 C 85.795 319.127,85.600 319.597,85.600 320.024 C 85.600 320.451,85.464 320.800,85.298 320.800 C 85.131 320.800,84.756 321.385,84.464 322.100 C 83.400 324.703,82.983 325.325,81.605 326.353 C 80.832 326.929,79.852 327.715,79.425 328.100 C 78.998 328.485,78.413 328.800,78.125 328.800 C 77.836 328.800,77.600 328.980,77.600 329.200 C 77.600 329.420,77.251 329.600,76.824 329.600 C 76.397 329.600,75.927 329.795,75.780 330.032 C 75.633 330.270,75.101 330.362,74.598 330.235 C 74.023 330.091,73.606 330.207,73.476 330.547 C 73.318 330.957,72.187 331.088,68.800 331.088 C 65.413 331.088,64.282 330.957,64.124 330.547 C 63.994 330.207,63.577 330.091,63.002 330.235 C 62.499 330.362,61.967 330.270,61.820 330.032 C 61.673 329.795,61.203 329.600,60.776 329.600 C 60.349 329.600,60.000 329.420,60.000 329.200 C 60.000 328.980,59.764 328.800,59.475 328.800 C 59.187 328.800,58.564 328.440,58.092 328.000 C 57.620 327.560,57.099 327.200,56.934 327.200 C 56.517 327.200,53.600 324.314,53.600 323.902 C 53.600 323.718,53.240 323.180,52.800 322.708 C 52.360 322.236,52.000 321.613,52.000 321.325 C 52.000 321.036,51.820 320.800,51.600 320.800 C 51.380 320.800,51.200 320.451,51.200 320.024 C 51.200 319.597,51.009 319.129,50.777 318.986 C 50.540 318.839,50.461 318.233,50.597 317.613 C 50.772 316.815,50.666 316.434,50.221 316.263 C 49.301 315.910,49.313 309.285,50.234 308.932 C 50.711 308.749,50.807 308.363,50.622 307.375 C 50.482 306.630,50.554 305.952,50.788 305.808 C 51.014 305.667,51.200 305.203,51.200 304.776 C 51.200 304.349,51.336 304.000,51.502 304.000 C 51.669 304.000,52.044 303.459,52.337 302.797 C 53.025 301.243,57.243 297.025,58.797 296.337 C 59.459 296.044,60.000 295.669,60.000 295.502 C 60.000 295.336,60.349 295.200,60.776 295.200 C 61.203 295.200,61.673 295.005,61.820 294.768 C 61.967 294.530,62.499 294.438,63.002 294.565 C 63.573 294.708,63.994 294.594,64.121 294.260 C 64.405 293.522,73.253 293.559,73.500 294.299 M129.500 294.299 C 129.601 294.603,130.027 294.708,130.589 294.567 C 131.097 294.439,131.633 294.530,131.780 294.768 C 131.927 295.005,132.397 295.200,132.824 295.200 C 133.251 295.200,133.600 295.380,133.600 295.600 C 133.600 295.820,133.836 296.000,134.125 296.000 C 134.413 296.000,135.036 296.360,135.508 296.800 C 135.980 297.240,136.501 297.600,136.666 297.600 C 137.083 297.600,140.000 300.486,140.000 300.898 C 140.000 301.082,140.360 301.620,140.800 302.092 C 141.240 302.564,141.600 303.187,141.600 303.475 C 141.600 303.764,141.801 304.000,142.047 304.000 C 142.292 304.000,142.402 304.348,142.291 304.774 C 142.169 305.239,142.327 305.640,142.687 305.778 C 143.091 305.933,143.207 306.317,143.045 306.962 C 142.890 307.581,142.998 307.991,143.354 308.127 C 144.129 308.424,144.086 316.800,143.309 316.800 C 142.956 316.800,142.863 317.112,143.025 317.756 C 143.157 318.282,143.070 318.833,142.832 318.980 C 142.595 319.127,142.400 319.597,142.400 320.024 C 142.400 320.451,142.220 320.800,142.000 320.800 C 141.780 320.800,141.597 321.025,141.593 321.300 C 141.573 322.680,135.480 328.773,134.100 328.793 C 133.825 328.797,133.600 328.980,133.600 329.200 C 133.600 329.420,133.251 329.600,132.824 329.600 C 132.397 329.600,131.927 329.795,131.780 330.032 C 131.633 330.270,131.101 330.362,130.598 330.235 C 130.023 330.091,129.606 330.207,129.476 330.547 C 129.318 330.957,128.187 331.088,124.800 331.088 C 121.413 331.088,120.282 330.957,120.124 330.547 C 119.991 330.198,119.577 330.091,118.962 330.245 C 118.287 330.415,117.933 330.290,117.752 329.819 C 117.612 329.453,117.279 329.237,117.014 329.339 C 116.748 329.441,115.971 329.002,115.287 328.362 C 114.603 327.723,113.906 327.200,113.739 327.200 C 113.319 327.200,110.400 324.317,110.400 323.902 C 110.400 323.718,110.040 323.180,109.600 322.708 C 109.160 322.236,108.800 321.613,108.800 321.325 C 108.800 321.036,108.620 320.800,108.400 320.800 C 108.180 320.800,108.000 320.451,108.000 320.024 C 108.000 319.597,107.803 319.125,107.562 318.977 C 107.322 318.828,107.207 318.277,107.307 317.753 C 107.415 317.187,107.298 316.800,107.020 316.800 C 106.336 316.800,106.413 308.329,107.099 308.100 C 107.403 307.999,107.508 307.573,107.367 307.011 C 107.239 306.503,107.330 305.967,107.568 305.820 C 107.805 305.673,108.000 305.203,108.000 304.776 C 108.000 304.349,108.180 304.000,108.400 304.000 C 108.620 304.000,108.800 303.795,108.800 303.544 C 108.800 301.380,117.374 294.020,119.213 294.604 C 119.602 294.728,119.997 294.584,120.116 294.275 C 120.404 293.524,129.249 293.547,129.500 294.299 M335.900 294.299 C 336.001 294.603,336.427 294.708,336.989 294.567 C 337.497 294.439,338.033 294.530,338.180 294.768 C 338.327 295.005,338.797 295.200,339.224 295.200 C 339.651 295.200,340.000 295.380,340.000 295.600 C 340.000 295.820,340.236 296.000,340.525 296.000 C 340.813 296.000,341.436 296.360,341.908 296.800 C 342.380 297.240,342.901 297.600,343.066 297.600 C 343.483 297.600,346.400 300.486,346.400 300.898 C 346.400 301.082,346.760 301.620,347.200 302.092 C 347.640 302.564,348.000 303.187,348.000 303.475 C 348.000 303.764,348.201 304.000,348.447 304.000 C 348.692 304.000,348.802 304.348,348.691 304.774 C 348.570 305.235,348.726 305.640,349.076 305.774 C 349.501 305.937,349.591 306.332,349.401 307.197 C 349.217 308.033,349.328 308.585,349.769 309.026 C 350.671 309.928,350.680 315.918,349.779 316.263 C 349.334 316.434,349.228 316.815,349.403 317.613 C 349.539 318.233,349.460 318.839,349.223 318.986 C 348.991 319.129,348.800 319.597,348.800 320.024 C 348.800 320.451,348.620 320.800,348.400 320.800 C 348.180 320.800,347.997 321.025,347.993 321.300 C 347.985 321.847,346.386 323.980,344.783 325.583 C 343.180 327.186,341.047 328.785,340.500 328.793 C 340.225 328.797,340.000 328.980,340.000 329.200 C 340.000 329.420,339.651 329.600,339.224 329.600 C 338.797 329.600,338.327 329.795,338.180 330.032 C 338.033 330.270,337.501 330.362,336.998 330.235 C 336.423 330.091,336.006 330.207,335.876 330.547 C 335.718 330.957,334.587 331.088,331.200 331.088 C 327.813 331.088,326.682 330.957,326.524 330.547 C 326.391 330.198,325.977 330.091,325.362 330.245 C 324.717 330.407,324.333 330.291,324.178 329.887 C 324.040 329.527,323.639 329.369,323.174 329.491 C 322.748 329.602,322.400 329.492,322.400 329.247 C 322.400 329.001,322.164 328.800,321.875 328.800 C 321.587 328.800,320.964 328.440,320.492 328.000 C 320.020 327.560,319.460 327.200,319.248 327.200 C 318.747 327.200,316.000 323.992,316.000 323.408 C 316.000 322.728,315.041 320.807,314.700 320.803 C 314.535 320.801,314.400 320.451,314.400 320.024 C 314.400 319.597,314.203 319.125,313.962 318.977 C 313.722 318.828,313.607 318.277,313.707 317.753 C 313.815 317.187,313.698 316.800,313.420 316.800 C 312.736 316.800,312.813 308.329,313.499 308.100 C 313.803 307.999,313.908 307.573,313.767 307.011 C 313.639 306.503,313.730 305.967,313.968 305.820 C 314.205 305.673,314.400 305.203,314.400 304.776 C 314.400 304.349,314.535 303.999,314.700 303.997 C 315.059 303.993,316.000 302.056,316.000 301.320 C 316.000 301.034,316.180 300.800,316.400 300.800 C 316.620 300.800,316.800 300.545,316.800 300.232 C 316.800 299.594,321.125 296.008,321.900 296.003 C 322.175 296.001,322.400 295.820,322.400 295.600 C 322.400 295.380,322.749 295.200,323.176 295.200 C 323.603 295.200,324.073 295.005,324.220 294.768 C 324.367 294.530,324.899 294.438,325.402 294.565 C 325.973 294.708,326.394 294.594,326.521 294.260 C 326.805 293.522,335.653 293.559,335.900 294.299 M62.000 312.400 L 62.000 318.800 68.800 318.800 L 75.600 318.800 75.600 312.400 L 75.600 306.000 68.800 306.000 L 62.000 306.000 62.000 312.400 M118.000 312.400 L 118.000 318.800 124.800 318.800 L 131.600 318.800 131.600 312.400 L 131.600 306.000 124.800 306.000 L 118.000 306.000 118.000 312.400 M324.400 312.400 L 324.400 318.800 331.200 318.800 L 338.000 318.800 338.000 312.400 L 338.000 306.000 331.200 306.000 L 324.400 306.000 324.400 312.400 " stroke="none" fill="#ffffff" fill-rule="evenodd"></path></g></svg>