<svg id="svg" version="1.1" xmlns="http://www.w3.org/2000/svg" xmlns:xlink="http://www.w3.org/1999/xlink" width="400" height="400" viewBox="0, 0, 400,400">
    <g id="svgg">
        <path id="path0" d="M189.656 22.009 C 188.697 22.444,187.077 22.806,186.056 22.814 C 185.035 22.821,183.480 23.175,182.600 23.600 C 181.720 24.025,180.730 24.380,180.400 24.389 C 180.070 24.398,179.260 24.763,178.600 25.200 C 177.940 25.637,177.082 25.996,176.694 25.997 C 176.085 26.000,174.821 26.646,171.000 28.910 C 165.380 32.239,163.976 33.562,128.900 68.570 L 93.200 104.201 93.200 106.491 C 93.200 109.895,93.122 109.870,104.800 110.119 C 112.673 110.287,114.836 110.452,115.800 110.961 C 116.460 111.310,117.520 111.596,118.156 111.598 C 118.792 111.599,120.052 111.936,120.956 112.346 C 125.307 114.320,126.451 114.800,126.808 114.800 C 127.191 114.800,134.087 119.076,136.000 120.501 C 136.550 120.911,149.960 134.168,165.800 149.962 C 198.460 182.528,196.114 180.554,202.172 180.553 C 208.491 180.552,206.490 182.225,238.894 149.861 C 263.258 125.529,267.952 121.020,271.200 118.834 C 275.689 115.813,280.522 113.200,281.620 113.200 C 282.051 113.200,283.075 112.840,283.896 112.400 C 284.716 111.960,286.111 111.599,286.994 111.598 C 287.877 111.596,289.101 111.334,289.714 111.014 C 290.500 110.604,292.969 110.354,298.114 110.164 C 306.527 109.853,307.600 109.528,307.600 107.294 C 307.600 104.949,307.059 104.373,271.140 68.484 C 235.218 32.591,235.568 32.919,228.400 28.462 C 226.278 27.142,223.931 26.000,223.342 26.000 C 223.003 26.000,222.269 25.640,221.709 25.200 C 221.150 24.760,220.376 24.400,219.990 24.400 C 219.603 24.400,218.503 24.044,217.544 23.609 C 216.585 23.174,214.944 22.814,213.899 22.809 C 212.776 22.804,211.385 22.472,210.504 22.000 C 208.258 20.796,192.314 20.803,189.656 22.009 M78.600 119.138 C 75.843 120.914,32.967 164.553,31.169 167.414 C 30.196 168.961,29.174 170.581,28.897 171.014 C 28.620 171.446,28.178 172.250,27.913 172.800 C 27.648 173.350,27.110 174.229,26.716 174.754 C 26.322 175.279,25.999 176.089,25.997 176.554 C 25.996 177.019,25.637 177.940,25.200 178.600 C 24.763 179.260,24.404 180.116,24.403 180.501 C 24.401 180.887,24.040 181.875,23.600 182.696 C 23.118 183.595,22.800 184.952,22.800 186.110 C 22.800 187.242,22.471 188.676,22.000 189.600 C 20.785 191.982,20.785 208.237,22.000 210.504 C 22.481 211.402,22.800 212.761,22.800 213.914 C 22.800 215.041,23.130 216.477,23.600 217.400 C 24.040 218.263,24.401 219.246,24.401 219.585 C 24.402 219.923,24.762 220.789,25.201 221.510 C 25.641 222.230,26.000 223.151,26.000 223.556 C 26.000 223.961,26.360 224.750,26.800 225.309 C 27.240 225.869,27.600 226.530,27.600 226.779 C 27.600 227.028,27.932 227.720,28.337 228.316 C 30.647 231.713,32.400 234.456,32.400 234.673 C 32.400 235.166,77.140 279.948,78.724 281.042 C 79.405 281.511,80.091 281.607,81.324 281.404 C 82.246 281.253,90.200 281.010,99.000 280.865 C 114.558 280.607,115.047 280.575,116.712 279.700 C 117.654 279.205,118.788 278.800,119.233 278.800 C 119.678 278.800,120.707 278.455,121.521 278.033 C 122.334 277.611,123.450 277.063,124.000 276.814 C 128.687 274.692,130.472 273.042,159.800 243.733 C 174.760 228.782,187.810 215.921,188.800 215.151 C 191.044 213.408,194.587 211.600,195.760 211.600 C 196.248 211.600,196.996 211.336,197.424 211.013 C 197.986 210.587,199.302 210.425,202.200 210.425 C 205.098 210.425,206.414 210.587,206.976 211.013 C 207.404 211.336,208.321 211.600,209.015 211.600 C 209.710 211.600,210.693 211.960,211.200 212.400 C 211.707 212.840,212.437 213.200,212.821 213.200 C 213.803 213.200,216.207 215.530,245.000 244.392 C 259.080 258.506,271.410 270.616,272.400 271.303 C 273.390 271.991,274.920 273.144,275.800 273.865 C 277.586 275.329,280.948 277.200,281.793 277.200 C 282.095 277.200,282.616 277.473,282.949 277.806 C 283.282 278.139,284.464 278.585,285.575 278.795 C 286.686 279.006,288.079 279.495,288.670 279.883 C 289.633 280.514,291.158 280.599,303.372 280.704 C 311.844 280.776,317.555 280.988,318.467 281.263 C 320.797 281.967,321.455 281.387,344.817 258.021 C 368.370 234.464,369.243 233.455,373.209 225.200 C 373.896 223.770,374.626 222.330,374.831 222.000 C 375.653 220.680,377.070 215.843,377.372 213.326 C 377.509 212.185,377.885 210.745,378.208 210.126 C 379.064 208.485,379.064 191.515,378.208 189.874 C 377.885 189.255,377.509 187.815,377.371 186.674 C 377.125 184.622,375.635 179.573,374.854 178.141 C 374.631 177.734,373.885 176.230,373.194 174.800 C 369.340 166.816,368.120 165.416,344.209 141.526 C 320.889 118.226,320.687 118.052,317.994 119.002 C 316.621 119.486,313.783 119.600,303.044 119.600 C 290.552 119.600,289.702 119.646,288.296 120.400 C 287.475 120.840,286.343 121.200,285.781 121.200 C 285.218 121.200,284.003 121.591,283.079 122.069 C 281.411 122.932,280.890 123.197,278.611 124.347 C 275.170 126.084,268.352 132.495,242.850 157.975 C 223.356 177.453,214.408 186.128,213.171 186.750 C 212.197 187.239,211.130 187.788,210.800 187.970 C 207.522 189.777,198.748 190.449,196.745 189.047 C 196.238 188.691,195.495 188.400,195.095 188.400 C 194.136 188.400,191.395 186.994,189.400 185.478 C 188.520 184.809,175.020 171.544,159.400 155.999 C 131.844 128.575,128.951 125.817,126.266 124.420 C 125.570 124.058,124.640 123.576,124.200 123.349 C 123.760 123.122,122.644 122.546,121.721 122.069 C 120.797 121.591,119.592 121.200,119.044 121.200 C 118.495 121.200,117.387 120.811,116.581 120.336 C 115.173 119.505,114.505 119.460,99.058 119.163 C 90.226 118.993,82.280 118.744,81.400 118.609 C 80.195 118.426,79.503 118.557,78.600 119.138 M195.800 220.801 C 194.507 221.566,183.754 232.050,165.400 250.439 C 136.559 279.336,130.106 285.186,127.056 285.202 C 126.805 285.204,126.122 285.454,125.539 285.759 C 124.955 286.063,123.785 286.538,122.939 286.813 C 122.092 287.089,121.045 287.558,120.611 287.857 C 120.177 288.156,119.316 288.400,118.698 288.400 C 118.080 288.400,116.905 288.699,116.087 289.063 C 114.884 289.600,112.667 289.772,104.467 289.963 C 92.984 290.232,93.200 290.164,93.200 293.503 C 93.200 296.023,90.976 293.653,129.062 331.704 C 166.757 369.362,166.680 369.293,174.800 373.210 C 176.230 373.899,177.734 374.642,178.141 374.861 C 179.605 375.645,184.640 377.127,186.674 377.371 C 187.815 377.509,189.255 377.885,189.874 378.208 C 191.528 379.070,208.486 379.063,210.143 378.199 C 210.771 377.871,212.481 377.438,213.943 377.236 C 216.645 376.862,220.032 375.799,222.200 374.644 C 222.860 374.293,223.602 374.004,223.850 374.002 C 224.241 374.000,225.685 373.236,228.600 371.488 C 235.462 367.373,235.430 367.402,271.204 331.661 C 305.427 297.469,307.600 295.161,307.600 293.002 C 307.600 290.507,306.508 290.140,298.377 289.899 C 292.888 289.737,290.619 289.517,289.513 289.040 C 288.695 288.688,287.389 288.400,286.611 288.400 C 285.834 288.400,284.525 288.040,283.704 287.600 C 282.884 287.160,281.984 286.800,281.704 286.800 C 281.425 286.800,280.525 286.440,279.704 286.000 C 278.884 285.560,277.993 285.200,277.726 285.200 C 277.459 285.200,276.376 284.633,275.320 283.939 C 274.264 283.246,272.140 281.855,270.600 280.850 C 268.541 279.505,260.219 271.465,239.150 250.466 C 221.164 232.539,209.774 221.482,208.550 220.762 C 205.584 219.016,198.782 219.037,195.800 220.801 " stroke="none" fill="#fff" fill-rule="evenodd">
        </path>
    </g>
</svg>